<?xml version="1.0" encoding="UTF-8"?>
<!--Generator: Apple Native CoreSVG 123-->
<!DOCTYPE svg
PUBLIC "-//W3C//DTD SVG 1.1//EN"
       "http://www.w3.org/Graphics/SVG/1.1/DTD/svg11.dtd">
<svg version="1.1" xmlns="http://www.w3.org/2000/svg" xmlns:xlink="http://www.w3.org/1999/xlink" width="3300" height="2200">
 <!--glyph: "uni100383.medium", point size: 100.000000, font version: "Version 15.0d7e11", template writer version: "5"-->
 <g id="Notes">
  <rect height="2200" id="artboard" style="fill:white;opacity:1" width="3300" x="0" y="0"/>
  <line id="" style="fill:none;stroke:black;opacity:1;stroke-width:0.5;" x1="263" x2="3036" y1="292" y2="292"/>
  <text style="stroke:none;fill:black;font-family:-apple-system,&quot;SF Pro Display&quot;,&quot;SF Pro Text&quot;,Helvetica,sans-serif;font-weight:bold;" transform="matrix(1 0 0 1 263 322)">Weight/Scale Variations</text>
  <text style="stroke:none;fill:black;font-family:-apple-system,&quot;SF Pro Display&quot;,&quot;SF Pro Text&quot;,Helvetica,sans-serif;text-anchor:middle;" transform="matrix(1 0 0 1 559.711 322)">Ultralight</text>
  <text style="stroke:none;fill:black;font-family:-apple-system,&quot;SF Pro Display&quot;,&quot;SF Pro Text&quot;,Helvetica,sans-serif;text-anchor:middle;" transform="matrix(1 0 0 1 856.422 322)">Thin</text>
  <text style="stroke:none;fill:black;font-family:-apple-system,&quot;SF Pro Display&quot;,&quot;SF Pro Text&quot;,Helvetica,sans-serif;text-anchor:middle;" transform="matrix(1 0 0 1 1153.13 322)">Light</text>
  <text style="stroke:none;fill:black;font-family:-apple-system,&quot;SF Pro Display&quot;,&quot;SF Pro Text&quot;,Helvetica,sans-serif;text-anchor:middle;" transform="matrix(1 0 0 1 1449.84 322)">Regular</text>
  <text style="stroke:none;fill:black;font-family:-apple-system,&quot;SF Pro Display&quot;,&quot;SF Pro Text&quot;,Helvetica,sans-serif;text-anchor:middle;" transform="matrix(1 0 0 1 1746.56 322)">Medium</text>
  <text style="stroke:none;fill:black;font-family:-apple-system,&quot;SF Pro Display&quot;,&quot;SF Pro Text&quot;,Helvetica,sans-serif;text-anchor:middle;" transform="matrix(1 0 0 1 2043.27 322)">Semibold</text>
  <text style="stroke:none;fill:black;font-family:-apple-system,&quot;SF Pro Display&quot;,&quot;SF Pro Text&quot;,Helvetica,sans-serif;text-anchor:middle;" transform="matrix(1 0 0 1 2339.98 322)">Bold</text>
  <text style="stroke:none;fill:black;font-family:-apple-system,&quot;SF Pro Display&quot;,&quot;SF Pro Text&quot;,Helvetica,sans-serif;text-anchor:middle;" transform="matrix(1 0 0 1 2636.69 322)">Heavy</text>
  <text style="stroke:none;fill:black;font-family:-apple-system,&quot;SF Pro Display&quot;,&quot;SF Pro Text&quot;,Helvetica,sans-serif;text-anchor:middle;" transform="matrix(1 0 0 1 2933.4 322)">Black</text>
  <line id="" style="fill:none;stroke:black;opacity:1;stroke-width:0.5;" x1="263" x2="3036" y1="1903" y2="1903"/>
  <g id="" transform="matrix(1 0 0 1 263 1933)">
   <path d="M 9.24805 0.830078 C 13.5547 0.830078 17.1387 -2.74414 17.1387 -7.05078 C 17.1387 -11.3574 13.5449 -14.9316 9.23828 -14.9316 C 4.94141 -14.9316 1.36719 -11.3574 1.36719 -7.05078 C 1.36719 -2.74414 4.95117 0.830078 9.24805 0.830078 Z M 9.24805 -0.654297 C 5.70312 -0.654297 2.87109 -3.49609 2.87109 -7.05078 C 2.87109 -10.6055 5.69336 -13.4473 9.23828 -13.4473 C 12.793 -13.4473 15.6348 -10.6055 15.6445 -7.05078 C 15.6543 -3.49609 12.8027 -0.654297 9.24805 -0.654297 Z M 9.22852 -3.42773 C 9.69727 -3.42773 9.9707 -3.74023 9.9707 -4.25781 L 9.9707 -6.31836 L 12.1973 -6.31836 C 12.6953 -6.31836 13.0371 -6.57227 13.0371 -7.04102 C 13.0371 -7.51953 12.7148 -7.7832 12.1973 -7.7832 L 9.9707 -7.7832 L 9.9707 -10.0098 C 9.9707 -10.5273 9.69727 -10.8496 9.22852 -10.8496 C 8.75977 -10.8496 8.50586 -10.5078 8.50586 -10.0098 L 8.50586 -7.7832 L 6.29883 -7.7832 C 5.78125 -7.7832 5.44922 -7.51953 5.44922 -7.04102 C 5.44922 -6.57227 5.80078 -6.31836 6.29883 -6.31836 L 8.50586 -6.31836 L 8.50586 -4.25781 C 8.50586 -3.75977 8.75977 -3.42773 9.22852 -3.42773 Z"/>
  </g>
  <g id="" transform="matrix(1 0 0 1 281.506 1933)">
   <path d="M 11.709 2.91016 C 17.1582 2.91016 21.6699 -1.60156 21.6699 -7.05078 C 21.6699 -12.4902 17.1484 -17.0117 11.6992 -17.0117 C 6.25977 -17.0117 1.74805 -12.4902 1.74805 -7.05078 C 1.74805 -1.60156 6.26953 2.91016 11.709 2.91016 Z M 11.709 1.25 C 7.09961 1.25 3.41797 -2.44141 3.41797 -7.05078 C 3.41797 -11.6504 7.08984 -15.3516 11.6992 -15.3516 C 16.3086 -15.3516 20 -11.6504 20.0098 -7.05078 C 20.0195 -2.44141 16.3184 1.25 11.709 1.25 Z M 11.6895 -2.41211 C 12.207 -2.41211 12.5195 -2.77344 12.5195 -3.33984 L 12.5195 -6.23047 L 15.5762 -6.23047 C 16.123 -6.23047 16.5039 -6.51367 16.5039 -7.03125 C 16.5039 -7.55859 16.1426 -7.86133 15.5762 -7.86133 L 12.5195 -7.86133 L 12.5195 -10.9277 C 12.5195 -11.5039 12.207 -11.8555 11.6895 -11.8555 C 11.1719 -11.8555 10.8789 -11.4844 10.8789 -10.9277 L 10.8789 -7.86133 L 7.83203 -7.86133 C 7.26562 -7.86133 6.89453 -7.55859 6.89453 -7.03125 C 6.89453 -6.51367 7.28516 -6.23047 7.83203 -6.23047 L 10.8789 -6.23047 L 10.8789 -3.33984 C 10.8789 -2.79297 11.1719 -2.41211 11.6895 -2.41211 Z"/>
  </g>
  <g id="" transform="matrix(1 0 0 1 304.924 1933)">
   <path d="M 14.9707 5.67383 C 21.9336 5.67383 27.6953 -0.078125 27.6953 -7.04102 C 27.6953 -14.0039 21.9238 -19.7559 14.9609 -19.7559 C 8.00781 -19.7559 2.25586 -14.0039 2.25586 -7.04102 C 2.25586 -0.078125 8.01758 5.67383 14.9707 5.67383 Z M 14.9707 3.85742 C 8.93555 3.85742 4.08203 -1.00586 4.08203 -7.04102 C 4.08203 -13.0762 8.92578 -17.9395 14.9609 -17.9395 C 21.0059 -17.9395 25.8594 -13.0762 25.8691 -7.04102 C 25.8789 -1.00586 21.0156 3.85742 14.9707 3.85742 Z M 14.9512 -1.06445 C 15.5176 -1.06445 15.8691 -1.45508 15.8691 -2.06055 L 15.8691 -6.13281 L 20.1074 -6.13281 C 20.6934 -6.13281 21.1133 -6.46484 21.1133 -7.02148 C 21.1133 -7.59766 20.7227 -7.93945 20.1074 -7.93945 L 15.8691 -7.93945 L 15.8691 -12.1875 C 15.8691 -12.8027 15.5176 -13.1934 14.9512 -13.1934 C 14.3848 -13.1934 14.0625 -12.7832 14.0625 -12.1875 L 14.0625 -7.93945 L 9.83398 -7.93945 C 9.21875 -7.93945 8.80859 -7.59766 8.80859 -7.02148 C 8.80859 -6.46484 9.23828 -6.13281 9.83398 -6.13281 L 14.0625 -6.13281 L 14.0625 -2.06055 C 14.0625 -1.47461 14.3848 -1.06445 14.9512 -1.06445 Z"/>
  </g>
  <text style="stroke:none;fill:black;font-family:-apple-system,&quot;SF Pro Display&quot;,&quot;SF Pro Text&quot;,Helvetica,sans-serif;font-weight:bold;" transform="matrix(1 0 0 1 263 1953)">Design Variations</text>
  <text style="stroke:none;fill:black;font-family:-apple-system,&quot;SF Pro Display&quot;,&quot;SF Pro Text&quot;,Helvetica,sans-serif;" transform="matrix(1 0 0 1 263 1971)">Symbols are supported in up to nine weights and three scales.</text>
  <text style="stroke:none;fill:black;font-family:-apple-system,&quot;SF Pro Display&quot;,&quot;SF Pro Text&quot;,Helvetica,sans-serif;" transform="matrix(1 0 0 1 263 1989)">For optimal layout with text and other symbols, vertically align</text>
  <text style="stroke:none;fill:black;font-family:-apple-system,&quot;SF Pro Display&quot;,&quot;SF Pro Text&quot;,Helvetica,sans-serif;" transform="matrix(1 0 0 1 263 2007)">symbols with the adjacent text.</text>
  <rect height="14" id="" style="fill:#00AEEF;stroke:none;opacity:0.4;" width="3" x="776" y="1919"/>
  <g id="" transform="matrix(1 0 0 1 779 1933)">
   <path d="M 10.5273 0 L 12.373 0 L 7.17773 -14.0918 L 5.43945 -14.0918 L 0.244141 0 L 2.08984 0 L 3.50586 -4.0332 L 9.11133 -4.0332 Z M 6.2793 -11.9531 L 6.33789 -11.9531 L 8.59375 -5.52734 L 4.02344 -5.52734 Z"/>
  </g>
  <rect height="14" id="" style="fill:#00AEEF;stroke:none;opacity:0.4;" width="3" x="791.617" y="1919"/>
  <text style="stroke:none;fill:black;font-family:-apple-system,&quot;SF Pro Display&quot;,&quot;SF Pro Text&quot;,Helvetica,sans-serif;font-weight:bold;" transform="matrix(1 0 0 1 776 1953)">Margins</text>
  <text style="stroke:none;fill:black;font-family:-apple-system,&quot;SF Pro Display&quot;,&quot;SF Pro Text&quot;,Helvetica,sans-serif;" transform="matrix(1 0 0 1 776 1971)">Leading and trailing margins on the left and right side of each symbol</text>
  <text style="stroke:none;fill:black;font-family:-apple-system,&quot;SF Pro Display&quot;,&quot;SF Pro Text&quot;,Helvetica,sans-serif;" transform="matrix(1 0 0 1 776 1989)">can be adjusted by modifying the width of the blue rectangles.</text>
  <text style="stroke:none;fill:black;font-family:-apple-system,&quot;SF Pro Display&quot;,&quot;SF Pro Text&quot;,Helvetica,sans-serif;" transform="matrix(1 0 0 1 776 2007)">Modifications are automatically applied proportionally to all</text>
  <text style="stroke:none;fill:black;font-family:-apple-system,&quot;SF Pro Display&quot;,&quot;SF Pro Text&quot;,Helvetica,sans-serif;" transform="matrix(1 0 0 1 776 2025)">scales and weights.</text>
  <g id="" transform="matrix(1 0 0 1 1289 1933)">
   <path d="M 2.83203 3.11523 L 4.375 4.6582 C 5.22461 5.48828 6.19141 5.41992 7.06055 4.46289 L 17.2754 -6.66016 C 17.7051 -6.36719 18.0957 -6.37695 18.5645 -6.47461 L 19.6094 -6.68945 L 20.3027 -5.99609 L 20.2539 -5.47852 C 20.1855 -4.95117 20.3516 -4.53125 20.8496 -4.0332 L 21.6602 -3.22266 C 22.168 -2.71484 22.8223 -2.68555 23.3008 -3.16406 L 26.5527 -6.41602 C 27.0312 -6.89453 27.0117 -7.54883 26.5039 -8.05664 L 25.6836 -8.87695 C 25.1855 -9.375 24.7754 -9.55078 24.2383 -9.47266 L 23.7109 -9.41406 L 23.0566 -10.0781 L 23.3398 -11.2207 C 23.4863 -11.7871 23.3398 -12.2559 22.7148 -12.8613 L 20.3027 -15.2539 C 16.7578 -18.7793 12.2266 -18.6719 9.11133 -15.5371 C 8.69141 -15.1074 8.64258 -14.5215 8.91602 -14.0918 C 9.15039 -13.7207 9.62891 -13.4961 10.2734 -13.6621 C 11.7871 -14.043 13.3008 -13.9258 14.7852 -12.9199 L 14.1602 -11.3379 C 13.9258 -10.752 13.9453 -10.2734 14.1797 -9.83398 L 3.01758 0.439453 C 2.08008 1.30859 1.97266 2.25586 2.83203 3.11523 Z M 10.6738 -15.1465 C 13.3398 -17.1387 16.6504 -16.8262 19.0527 -14.4141 L 21.6797 -11.8066 C 21.9141 -11.5723 21.9434 -11.3867 21.8848 -11.0938 L 21.5039 -9.53125 L 23.0762 -7.95898 L 24.043 -8.04688 C 24.3262 -8.07617 24.4141 -8.05664 24.6387 -7.83203 L 25.2637 -7.20703 L 22.5098 -4.46289 L 21.8848 -5.07812 C 21.6602 -5.30273 21.6406 -5.40039 21.6699 -5.68359 L 21.7578 -6.64062 L 20.1953 -8.20312 L 18.5742 -7.89062 C 18.291 -7.83203 18.1445 -7.83203 17.9102 -8.07617 L 15.7324 -10.2539 C 15.5078 -10.4883 15.4785 -10.625 15.6055 -10.9473 L 16.5527 -13.2227 C 14.9512 -14.7559 12.8418 -15.6055 10.8008 -14.9512 C 10.7129 -14.9219 10.6445 -14.9414 10.6152 -14.9805 C 10.5859 -15.0293 10.5859 -15.0781 10.6738 -15.1465 Z M 4.10156 2.41211 C 3.61328 1.91406 3.78906 1.61133 4.12109 1.30859 L 15.0781 -8.80859 L 16.3086 -7.57812 L 6.15234 3.34961 C 5.84961 3.68164 5.46875 3.7793 5.06836 3.37891 Z"/>
  </g>
  <text style="stroke:none;fill:black;font-family:-apple-system,&quot;SF Pro Display&quot;,&quot;SF Pro Text&quot;,Helvetica,sans-serif;font-weight:bold;" transform="matrix(1 0 0 1 1289 1953)">Exporting</text>
  <text style="stroke:none;fill:black;font-family:-apple-system,&quot;SF Pro Display&quot;,&quot;SF Pro Text&quot;,Helvetica,sans-serif;" transform="matrix(1 0 0 1 1289 1971)">Symbols should be outlined when exporting to ensure the</text>
  <text style="stroke:none;fill:black;font-family:-apple-system,&quot;SF Pro Display&quot;,&quot;SF Pro Text&quot;,Helvetica,sans-serif;" transform="matrix(1 0 0 1 1289 1989)">design is preserved when submitting to Xcode.</text>
  <text id="template-version" style="stroke:none;fill:black;font-family:-apple-system,&quot;SF Pro Display&quot;,&quot;SF Pro Text&quot;,Helvetica,sans-serif;text-anchor:end;" transform="matrix(1 0 0 1 3036 1933)">Template v.1.0</text>
  <text style="stroke:none;fill:black;font-family:-apple-system,&quot;SF Pro Display&quot;,&quot;SF Pro Text&quot;,Helvetica,sans-serif;text-anchor:end;" transform="matrix(1 0 0 1 3036 1951)">Generated from goforward.15</text>
  <text style="stroke:none;fill:black;font-family:-apple-system,&quot;SF Pro Display&quot;,&quot;SF Pro Text&quot;,Helvetica,sans-serif;text-anchor:end;" transform="matrix(1 0 0 1 3036 1969)">Typeset at 100 points</text>
  <text style="stroke:none;fill:black;font-family:-apple-system,&quot;SF Pro Display&quot;,&quot;SF Pro Text&quot;,Helvetica,sans-serif;" transform="matrix(1 0 0 1 263 726)">Small</text>
  <text style="stroke:none;fill:black;font-family:-apple-system,&quot;SF Pro Display&quot;,&quot;SF Pro Text&quot;,Helvetica,sans-serif;" transform="matrix(1 0 0 1 263 1156)">Medium</text>
  <text style="stroke:none;fill:black;font-family:-apple-system,&quot;SF Pro Display&quot;,&quot;SF Pro Text&quot;,Helvetica,sans-serif;" transform="matrix(1 0 0 1 263 1586)">Large</text>
 </g>
 <g id="Guides">
  <g id="H-reference" style="fill:#27AAE1;stroke:none;" transform="matrix(1 0 0 1 339 696)">
   <path d="M 54.9316 0 L 57.666 0 L 30.5664 -70.459 L 28.0762 -70.459 L 0.976562 0 L 3.66211 0 L 12.9395 -24.4629 L 45.7031 -24.4629 Z M 29.1992 -67.0898 L 29.4434 -67.0898 L 44.8242 -26.709 L 13.8184 -26.709 Z"/>
  </g>
  <line id="Baseline-S" style="fill:none;stroke:#27AAE1;opacity:1;stroke-width:0.577;" x1="263" x2="3036" y1="696" y2="696"/>
  <line id="Capline-S" style="fill:none;stroke:#27AAE1;opacity:1;stroke-width:0.577;" x1="263" x2="3036" y1="625.541" y2="625.541"/>
  <g id="H-reference" style="fill:#27AAE1;stroke:none;" transform="matrix(1 0 0 1 339 1126)">
   <path d="M 54.9316 0 L 57.666 0 L 30.5664 -70.459 L 28.0762 -70.459 L 0.976562 0 L 3.66211 0 L 12.9395 -24.4629 L 45.7031 -24.4629 Z M 29.1992 -67.0898 L 29.4434 -67.0898 L 44.8242 -26.709 L 13.8184 -26.709 Z"/>
  </g>
  <line id="Baseline-M" style="fill:none;stroke:#27AAE1;opacity:1;stroke-width:0.577;" x1="263" x2="3036" y1="1126" y2="1126"/>
  <line id="Capline-M" style="fill:none;stroke:#27AAE1;opacity:1;stroke-width:0.577;" x1="263" x2="3036" y1="1055.54" y2="1055.54"/>
  <g id="H-reference" style="fill:#27AAE1;stroke:none;" transform="matrix(1 0 0 1 339 1556)">
   <path d="M 54.9316 0 L 57.666 0 L 30.5664 -70.459 L 28.0762 -70.459 L 0.976562 0 L 3.66211 0 L 12.9395 -24.4629 L 45.7031 -24.4629 Z M 29.1992 -67.0898 L 29.4434 -67.0898 L 44.8242 -26.709 L 13.8184 -26.709 Z"/>
  </g>
  <line id="Baseline-L" style="fill:none;stroke:#27AAE1;opacity:1;stroke-width:0.577;" x1="263" x2="3036" y1="1556" y2="1556"/>
  <line id="Capline-L" style="fill:none;stroke:#27AAE1;opacity:1;stroke-width:0.577;" x1="263" x2="3036" y1="1485.54" y2="1485.54"/>
  <rect height="119.336" id="left-margin" style="fill:#00AEEF;stroke:none;opacity:0.4;" width="8.74023" x="1391.3" y="1030.79"/>
  <rect height="119.336" id="right-margin" style="fill:#00AEEF;stroke:none;opacity:0.4;" width="8.74023" x="1499.65" y="1030.79"/>
 </g>
 <g id="Symbols">
  <g id="Black-L" transform="matrix(1 0 0 1 2854.05 1556)">
   <path d="M 79.3457 32.8125 C 116.748 32.8125 147.412 2.14844 147.412 -35.2539 C 147.412 -52.9297 139.111 -73.0957 126.807 -83.6914 C 121.338 -88.5742 115.234 -88.5254 111.377 -84.3262 C 107.08 -79.6875 108.545 -73.584 112.793 -68.9941 C 121.68 -59.8145 126.953 -48.5352 126.953 -35.2539 C 127.002 -8.88672 105.713 12.3535 79.3457 12.3535 C 52.9785 12.3535 31.7383 -8.88672 31.7383 -35.2539 C 31.7383 -56.1523 45.0195 -73.8281 63.6719 -80.2734 L 63.6719 -71.582 C 63.6719 -65.5762 68.9453 -63.7207 74.3652 -67.6758 L 99.1699 -85.8398 C 103.467 -88.9648 103.369 -94.1406 99.1699 -97.2168 L 74.3652 -115.479 C 69.043 -119.385 63.6719 -117.725 63.6719 -111.523 L 63.6719 -101.514 C 33.7402 -94.3848 11.2793 -67.334 11.2793 -35.2539 C 11.2793 2.14844 41.9434 32.8125 79.3457 32.8125 Z M 63.3301 -7.08008 C 67.334 -7.08008 69.9219 -9.66797 69.9219 -13.916 L 69.9219 -50.4395 C 69.9219 -56.0059 66.6016 -58.9355 61.7188 -58.9355 C 58.8867 -58.9355 56.4453 -58.0566 53.3691 -55.2246 L 47.0703 -49.6582 C 44.6289 -47.3633 43.6035 -45.6543 43.6035 -43.2617 C 43.6035 -40.2832 45.9473 -37.9395 48.8281 -37.9395 C 50.8789 -37.9395 52.2461 -38.5254 53.7109 -40.4785 L 56.543 -43.9941 L 56.8359 -43.9941 L 56.8359 -13.916 C 56.8359 -9.66797 59.375 -7.08008 63.3301 -7.08008 Z M 93.6035 -6.93359 C 104.736 -6.93359 111.768 -13.9648 111.768 -25.2441 C 111.768 -35.1074 105.225 -40.8203 97.7051 -40.8203 C 93.75 -40.8203 90.2344 -39.0625 88.4766 -36.084 L 88.2324 -36.084 L 89.0625 -47.3145 L 104.443 -47.3145 C 107.959 -47.3145 110.156 -49.6582 110.156 -52.9785 C 110.156 -56.25 108.008 -58.4473 104.443 -58.4473 L 85.0586 -58.4473 C 80.9082 -58.4473 78.5156 -55.7617 78.2227 -50.9766 L 77.2949 -33.7891 C 77.0508 -29.6387 79.4922 -27.1484 83.3984 -27.1484 C 86.5234 -27.1484 87.4023 -27.8809 88.8184 -29.0039 C 90.3809 -30.2246 91.7969 -31.1035 93.8965 -31.1035 C 97.6562 -31.1035 99.7559 -28.3203 99.7559 -24.7559 C 99.7559 -20.9961 97.2168 -18.0664 93.8477 -18.0664 C 90.7715 -18.0664 89.0625 -19.8242 87.3535 -21.9238 C 86.3281 -23.1934 85.1074 -24.0723 82.8613 -24.0723 C 79.6875 -24.0723 77.3926 -21.8262 77.3926 -18.6035 C 77.3926 -17.4316 77.5391 -16.4062 78.1738 -15.0391 C 79.8828 -11.3281 85.5469 -6.93359 93.6035 -6.93359 Z"/>
  </g>
  <g id="Heavy-L" transform="matrix(1 0 0 1 2558.39 1556)">
   <path d="M 78.2715 31.7383 C 115.088 31.7383 145.312 1.5625 145.312 -35.2539 C 145.312 -53.8574 136.328 -73.7793 122.998 -84.5703 C 118.262 -88.7207 112.891 -88.5254 109.668 -84.8633 C 106.055 -80.7617 107.324 -75.4883 111.084 -71.582 C 121.289 -62.3047 127.49 -49.8047 127.539 -35.2539 C 127.539 -8.00781 105.566 13.9648 78.2715 13.9648 C 51.0254 13.9648 29.0527 -8.00781 29.0527 -35.2539 C 29.0527 -57.4219 43.5059 -76.0254 63.5254 -82.2754 L 63.5254 -73.2422 C 63.5254 -67.6758 68.2129 -66.0156 73.0469 -69.5312 L 96.7285 -86.7188 C 100.586 -89.5508 100.537 -94.0918 96.7285 -96.9238 L 73.0957 -114.111 C 68.2617 -117.676 63.5254 -116.113 63.5254 -110.449 L 63.5254 -100.635 C 33.7402 -93.8477 11.2793 -66.9922 11.2793 -35.2539 C 11.2793 1.5625 41.5039 31.7383 78.2715 31.7383 Z M 61.5723 -7.71484 C 65.1367 -7.71484 67.4316 -10.0098 67.4316 -13.8184 L 67.4316 -51.416 C 67.4316 -56.2988 64.5508 -58.8867 60.2539 -58.8867 C 57.7148 -58.8867 55.6152 -58.1055 52.7832 -55.6152 L 45.752 -49.9023 C 43.6035 -47.9004 42.6758 -46.3867 42.6758 -44.2383 C 42.6758 -41.5527 44.7754 -39.4043 47.4609 -39.4043 C 49.2188 -39.4043 50.4395 -39.8926 51.7578 -41.5527 L 55.6152 -45.459 L 55.8105 -45.459 L 55.8105 -13.8184 C 55.8105 -10.0586 58.0566 -7.71484 61.5723 -7.71484 Z M 92.3828 -7.37305 C 103.32 -7.37305 110.303 -14.3066 110.303 -25.293 C 110.303 -35.0586 103.857 -40.9668 95.9473 -40.9668 C 91.9434 -40.9668 88.2324 -39.1602 86.4258 -36.084 L 86.3281 -36.084 L 87.207 -48.291 L 103.662 -48.291 C 106.689 -48.291 108.74 -50.3906 108.74 -53.3691 C 108.74 -56.3477 106.738 -58.3008 103.662 -58.3008 L 83.8867 -58.3008 C 80.0293 -58.3008 77.832 -55.8594 77.5879 -51.5137 L 76.5137 -33.8867 C 76.2695 -30.0293 78.4668 -27.832 82.0312 -27.832 C 84.8145 -27.832 85.6934 -28.4668 87.1582 -29.6387 C 88.9648 -31.1523 90.5762 -32.0801 92.8711 -32.0801 C 97.0215 -32.0801 99.5117 -29.0527 99.5117 -24.9023 C 99.5117 -20.6543 96.582 -17.3828 92.627 -17.3828 C 89.2578 -17.3828 87.1094 -19.2871 85.4492 -21.7285 C 84.4727 -23.0469 83.3008 -23.9258 81.25 -23.9258 C 78.418 -23.9258 76.3672 -21.875 76.3672 -18.9941 C 76.3672 -17.9199 76.5137 -16.9434 77.0508 -15.7227 C 78.7598 -11.7676 84.4238 -7.37305 92.3828 -7.37305 Z"/>
  </g>
  <g id="Bold-L" transform="matrix(1 0 0 1 2262.88 1556)">
   <path d="M 77.0996 30.5664 C 113.232 30.5664 142.92 0.878906 142.92 -35.2539 C 142.92 -54.834 133.252 -74.5117 118.75 -85.5469 C 114.844 -88.8672 110.303 -88.5742 107.764 -85.4004 C 104.932 -81.9336 106.006 -77.6367 109.229 -74.5117 C 120.801 -65.0879 128.125 -51.2207 128.174 -35.2539 C 128.174 -6.93359 105.371 15.8203 77.0996 15.8203 C 48.8281 15.8203 26.0742 -6.93359 26.0742 -35.2539 C 26.0742 -58.7891 41.7969 -78.5156 63.3789 -84.4727 L 63.3789 -75.0488 C 63.3789 -70.0684 67.3828 -68.6035 71.6309 -71.6797 L 93.9453 -87.6953 C 97.3633 -90.1855 97.3633 -94.0918 93.9453 -96.582 L 71.6797 -112.646 C 67.4316 -115.723 63.3789 -114.307 63.3789 -109.229 L 63.3789 -99.6094 C 33.7402 -93.2129 11.2793 -66.6504 11.2793 -35.2539 C 11.2793 0.878906 41.0156 30.5664 77.0996 30.5664 Z M 59.6191 -8.39844 C 62.6953 -8.39844 64.6484 -10.4004 64.6484 -13.7207 L 64.6484 -52.4414 C 64.6484 -56.6406 62.3047 -58.8379 58.5938 -58.8379 C 56.3965 -58.8379 54.6387 -58.1543 52.0996 -56.0547 L 44.3359 -50.1465 C 42.4316 -48.5352 41.6504 -47.2168 41.6504 -45.3613 C 41.6504 -42.9688 43.5059 -41.0156 45.8496 -41.0156 C 47.4121 -41.0156 48.3887 -41.4551 49.5605 -42.8223 L 54.541 -47.0703 L 54.6875 -47.0703 L 54.6875 -13.7207 C 54.6875 -10.4492 56.5918 -8.39844 59.6191 -8.39844 Z M 90.9668 -7.86133 C 101.709 -7.86133 108.691 -14.7461 108.691 -25.3906 C 108.691 -34.9609 102.295 -41.1133 93.9941 -41.1133 C 89.9414 -41.1133 85.9863 -39.209 84.1797 -36.084 L 84.1309 -36.084 L 85.1562 -49.4141 L 102.734 -49.4141 C 105.322 -49.4141 107.129 -51.2695 107.129 -53.8574 C 107.129 -56.4453 105.371 -58.1543 102.734 -58.1543 L 82.6172 -58.1543 C 79.0527 -58.1543 77.0508 -55.957 76.8066 -52.0996 L 75.6348 -33.9844 C 75.3906 -30.5176 77.2949 -28.6133 80.4688 -28.6133 C 82.959 -28.6133 83.7891 -29.1504 85.3027 -30.3223 C 87.4023 -32.2266 89.209 -33.2031 91.6992 -33.2031 C 96.3379 -33.2031 99.2188 -29.834 99.2188 -25.0977 C 99.2188 -20.2148 95.8008 -16.6016 91.2598 -16.6016 C 87.5977 -16.6016 84.9609 -18.6523 83.3008 -21.4844 C 82.4219 -22.9004 81.2988 -23.7305 79.4922 -23.7305 C 76.9531 -23.7305 75.1953 -21.9727 75.1953 -19.4336 C 75.1953 -18.457 75.3418 -17.5781 75.7812 -16.5039 C 77.4902 -12.2559 83.1543 -7.86133 90.9668 -7.86133 Z"/>
  </g>
  <g id="Semibold-L" transform="matrix(1 0 0 1 1966.97 1556)">
   <path d="M 76.2695 29.7852 C 111.914 29.7852 141.309 0.390625 141.309 -35.2051 C 141.309 -55.5176 131.152 -75 115.82 -86.2305 C 112.5 -89.0137 108.545 -88.5742 106.445 -85.791 C 104.15 -82.7637 105.078 -79.1016 107.91 -76.5137 C 120.508 -66.9922 128.564 -52.1973 128.613 -35.2051 C 128.662 -6.25 105.273 17.0898 76.2695 17.0898 C 47.3145 17.0898 24.0234 -6.25 24.0234 -35.2051 C 24.0234 -59.7168 40.625 -80.1758 63.2812 -85.9375 L 63.2812 -76.3184 C 63.2812 -71.7285 66.7969 -70.3613 70.6543 -73.1445 L 92.041 -88.3789 C 95.166 -90.625 95.166 -94.0918 92.041 -96.3379 L 70.7031 -111.572 C 66.8457 -114.355 63.2812 -113.086 63.2812 -108.398 L 63.2812 -98.9258 C 33.7402 -92.8223 11.2793 -66.4062 11.2793 -35.2051 C 11.2793 0.390625 40.6738 29.7852 76.2695 29.7852 Z M 58.252 -8.88672 C 60.9863 -8.88672 62.7441 -10.6934 62.7441 -13.623 L 62.7441 -53.1738 C 62.7441 -56.8359 60.7422 -58.7891 57.4707 -58.7891 C 55.5176 -58.7891 54.0039 -58.2031 51.6602 -56.3965 L 43.3105 -50.3418 C 41.6504 -48.9746 40.918 -47.7539 40.918 -46.1426 C 40.918 -43.9453 42.627 -42.1387 44.7754 -42.1387 C 46.1426 -42.1387 46.9727 -42.4805 48.0469 -43.6523 L 53.8086 -48.1934 L 53.9062 -48.1934 L 53.9062 -13.623 C 53.9062 -10.7422 55.6152 -8.88672 58.252 -8.88672 Z M 89.9902 -8.20312 C 100.635 -8.20312 107.568 -14.9902 107.568 -25.4395 C 107.568 -34.8633 101.221 -41.2109 92.627 -41.2109 C 88.5742 -41.2109 84.5215 -39.3066 82.666 -36.1816 L 83.7402 -50.1953 L 102.148 -50.1953 C 104.395 -50.1953 106.006 -51.8555 106.006 -54.1992 C 106.006 -56.4941 104.395 -58.0566 102.148 -58.0566 L 81.6895 -58.0566 C 78.3691 -58.0566 76.5137 -56.0547 76.2695 -52.4902 L 75 -34.0332 C 74.7559 -30.8594 76.5137 -29.1504 79.3945 -29.1504 C 81.6406 -29.1504 82.4707 -29.5898 83.9844 -30.8105 C 86.3281 -32.959 88.2812 -33.9355 90.918 -33.9355 C 95.8496 -33.9355 99.0234 -30.3711 99.0234 -25.2441 C 99.0234 -19.9707 95.3125 -16.0645 90.2832 -16.0645 C 86.4746 -16.0645 83.4473 -18.2617 81.8359 -21.3379 C 81.0059 -22.8027 79.9316 -23.584 78.2227 -23.584 C 75.9766 -23.584 74.4141 -22.0215 74.4141 -19.7266 C 74.4141 -18.7988 74.5605 -17.9688 74.9512 -17.041 C 76.6113 -12.5977 82.2754 -8.20312 89.9902 -8.20312 Z"/>
  </g>
  <g id="Medium-L" transform="matrix(1 0 0 1 1670.87 1556)">
   <path d="M 75.6836 29.1992 C 110.938 29.1992 140.088 0.0488281 140.088 -35.2051 C 140.088 -56.0547 129.492 -75.3906 113.623 -86.7676 C 110.693 -89.1113 107.178 -88.5742 105.42 -86.084 C 103.564 -83.3984 104.395 -80.2246 106.934 -78.0273 C 120.264 -68.457 128.906 -52.9297 128.906 -35.2051 C 128.955 -5.71289 105.176 18.0176 75.6836 18.0176 C 46.1426 18.0176 22.4609 -5.71289 22.4609 -35.2051 C 22.4609 -60.4492 39.7461 -81.4453 63.1836 -87.0117 L 63.1836 -77.2461 C 63.1836 -72.9492 66.3574 -71.7285 69.9219 -74.2188 L 90.625 -88.8672 C 93.5059 -90.918 93.5059 -94.043 90.625 -96.1426 L 69.9707 -110.791 C 66.4062 -113.379 63.1836 -112.158 63.1836 -107.764 L 63.1836 -98.3887 C 33.7891 -92.4805 11.2793 -66.2598 11.2793 -35.2051 C 11.2793 0.0488281 40.3809 29.1992 75.6836 29.1992 Z M 57.2754 -9.22852 C 59.7168 -9.22852 61.2793 -10.8887 61.2793 -13.5742 L 61.2793 -53.7598 C 61.2793 -57.0312 59.5215 -58.7891 56.6406 -58.7891 C 54.834 -58.7891 53.5156 -58.2031 51.3184 -56.5918 L 42.5293 -50.4883 C 41.0645 -49.3164 40.3809 -48.1934 40.3809 -46.7285 C 40.3809 -44.6777 41.9922 -43.0176 43.9453 -43.0176 C 45.166 -43.0176 45.8984 -43.3105 46.9238 -44.2871 L 53.2715 -49.0234 L 53.3203 -49.0234 L 53.3203 -13.5742 C 53.3203 -10.9375 54.8828 -9.22852 57.2754 -9.22852 Z M 89.2578 -8.49609 C 99.8047 -8.49609 106.738 -15.2344 106.738 -25.4883 C 106.738 -34.8145 100.391 -41.3086 91.6016 -41.3086 C 87.5977 -41.3086 83.4473 -39.3555 81.543 -36.2793 L 82.666 -50.7812 L 101.66 -50.7812 C 103.662 -50.7812 105.176 -52.2949 105.176 -54.4434 C 105.176 -56.543 103.662 -57.959 101.66 -57.959 L 81.0059 -57.959 C 77.8809 -57.959 76.123 -56.1035 75.8789 -52.832 L 74.5117 -34.082 C 74.3164 -31.1035 75.9277 -29.541 78.6133 -29.541 C 80.6641 -29.541 81.4453 -29.9805 83.0078 -31.2012 C 85.498 -33.4961 87.5488 -34.5215 90.332 -34.5215 C 95.459 -34.5215 98.877 -30.8105 98.877 -25.3418 C 98.877 -19.7754 94.9219 -15.6738 89.5996 -15.6738 C 85.5957 -15.6738 82.3242 -17.9199 80.7617 -21.2402 C 79.9316 -22.7051 78.8574 -23.4863 77.2949 -23.4863 C 75.2441 -23.4863 73.7793 -22.0215 73.7793 -19.9219 C 73.7793 -19.0918 73.9258 -18.3105 74.2676 -17.4805 C 75.9277 -12.8418 81.6406 -8.49609 89.2578 -8.49609 Z"/>
  </g>
  <g id="Regular-L" transform="matrix(1 0 0 1 1374.97 1556)">
   <path d="M 74.8535 28.3691 C 109.668 28.3691 138.477 -0.390625 138.477 -35.2051 C 138.477 -56.7383 127.393 -75.9277 110.742 -87.4023 C 108.35 -89.209 105.42 -88.5742 104.102 -86.4258 C 102.783 -84.1797 103.467 -81.6406 105.664 -80.0293 C 119.922 -70.3125 129.297 -53.9062 129.346 -35.2051 C 129.395 -5.0293 105.078 19.2871 74.8535 19.2871 C 44.6777 19.2871 20.4102 -5.0293 20.4102 -35.2051 C 20.4102 -61.377 38.5742 -83.1055 63.0859 -88.4277 L 63.0859 -78.5156 C 63.0859 -74.5605 65.8203 -73.4863 68.9453 -75.6836 L 88.7207 -89.5508 C 91.3086 -91.3574 91.3574 -94.043 88.7207 -95.8984 L 68.9941 -109.766 C 65.8203 -112.012 63.0859 -110.938 63.0859 -106.934 L 63.0859 -97.7051 C 33.7891 -92.0898 11.2793 -66.0156 11.2793 -35.2051 C 11.2793 -0.390625 40.0879 28.3691 74.8535 28.3691 Z M 55.9082 -9.66797 C 58.0566 -9.66797 59.4238 -11.1328 59.4238 -13.4766 L 59.4238 -54.4434 C 59.4238 -57.2266 58.0078 -58.7402 55.5176 -58.7402 C 53.9062 -58.7402 52.832 -58.252 50.8789 -56.8848 L 41.5527 -50.6348 C 40.2832 -49.7559 39.6973 -48.7793 39.6973 -47.4609 C 39.6973 -45.6543 41.1133 -44.1406 42.8711 -44.1406 C 43.9453 -44.1406 44.4824 -44.3359 45.459 -45.1172 L 52.5391 -50.1465 L 52.5391 -13.4766 C 52.5391 -11.1816 53.8574 -9.66797 55.9082 -9.66797 Z M 88.3301 -8.83789 C 98.6816 -8.83789 105.615 -15.4785 105.615 -25.5371 C 105.615 -34.7656 99.3164 -41.4062 90.2832 -41.4062 C 86.2793 -41.4062 82.0312 -39.4531 80.0781 -36.4258 L 81.2988 -51.5625 L 101.074 -51.5625 C 102.734 -51.5625 104.102 -52.8809 104.102 -54.7363 C 104.102 -56.6406 102.734 -57.8613 101.074 -57.8613 L 80.127 -57.8613 C 77.1973 -57.8613 75.5859 -56.2012 75.3418 -53.2227 L 73.9258 -34.1797 C 73.6816 -31.3965 75.1465 -30.0781 77.5391 -30.0781 C 79.3457 -30.0781 80.1758 -30.4199 81.7383 -31.6406 C 84.4238 -34.2285 86.6211 -35.2539 89.5508 -35.2539 C 94.9707 -35.2539 98.6816 -31.3477 98.6816 -25.4395 C 98.6816 -19.4824 94.3848 -15.1367 88.6719 -15.1367 C 84.4727 -15.1367 80.8594 -17.5293 79.2969 -21.0938 C 78.5156 -22.6074 77.4902 -23.3887 76.0742 -23.3887 C 74.2676 -23.3887 72.998 -22.1191 72.998 -20.2148 C 72.998 -19.4336 73.1445 -18.7012 73.4375 -18.0176 C 75.0488 -13.1836 80.7617 -8.83789 88.3301 -8.83789 Z"/>
  </g>
  <g id="Light-L" transform="matrix(1 0 0 1 1079.18 1556)">
   <path d="M 73.9258 27.4902 C 108.301 27.4902 136.621 -0.830078 136.621 -35.1562 C 136.621 -57.0801 125.049 -76.5137 107.715 -87.6953 C 105.908 -89.0137 103.711 -88.5254 102.734 -86.8652 C 101.758 -85.1562 102.295 -83.2031 103.955 -82.0312 C 119.434 -72.2168 129.688 -54.9316 129.736 -35.1562 C 129.736 -4.3457 104.785 20.6055 73.9258 20.6055 C 43.1152 20.6055 18.2129 -4.3457 18.2129 -35.1562 C 18.2129 -62.1582 37.2559 -84.6191 62.6465 -89.7949 L 62.6465 -78.7109 C 62.6465 -75.4883 64.8926 -74.5117 67.5781 -76.416 L 86.9629 -89.9902 C 89.1602 -91.5039 89.209 -93.75 86.9629 -95.3125 L 67.627 -108.887 C 64.8926 -110.791 62.6465 -109.814 62.6465 -106.592 L 62.6465 -96.8262 C 33.5938 -91.4551 11.2793 -65.6738 11.2793 -35.1562 C 11.2793 -0.830078 39.5996 27.4902 73.9258 27.4902 Z M 54.6875 -10.0098 C 56.3477 -10.0098 57.4707 -11.2305 57.4707 -13.0371 L 57.4707 -55.7129 C 57.4707 -57.8613 56.2988 -59.082 54.2969 -59.082 C 52.9785 -59.082 52.1484 -58.6914 50.4883 -57.6172 L 40.2832 -50.8301 C 39.209 -50.1465 38.7695 -49.3652 38.7695 -48.3398 C 38.7695 -46.875 39.8926 -45.6543 41.3574 -45.6543 C 42.1387 -45.6543 42.5781 -45.8008 43.2617 -46.3867 L 51.8066 -52.1973 L 51.9531 -52.1973 L 51.9531 -13.0371 C 51.9531 -11.2305 53.0273 -10.0098 54.6875 -10.0098 Z M 87.5977 -9.0332 C 97.9004 -9.0332 104.785 -15.625 104.785 -25.5371 C 104.785 -34.668 98.4375 -41.3086 89.3555 -41.3086 C 84.9609 -41.3086 80.4688 -39.1602 78.3203 -35.791 L 79.7363 -53.0273 L 100.732 -53.0273 C 102.148 -53.0273 103.271 -54.1016 103.271 -55.6152 C 103.271 -57.0801 102.148 -58.0566 100.732 -58.0566 L 78.7598 -58.0566 C 76.3672 -58.0566 75 -56.7383 74.8047 -54.2969 L 73.291 -33.9355 C 73.0957 -31.7383 74.2676 -30.6152 76.2695 -30.6152 C 77.7344 -30.6152 78.3691 -30.957 79.6387 -31.9824 C 82.666 -35.1074 85.2539 -36.3281 88.7207 -36.3281 C 94.9219 -36.3281 99.2188 -31.9336 99.2188 -25.4395 C 99.2188 -18.8965 94.3848 -14.0625 87.8906 -14.0625 C 83.1055 -14.0625 78.9062 -16.8945 77.4902 -20.8984 C 76.9043 -22.2168 76.0254 -22.8516 74.8047 -22.8516 C 73.3398 -22.8516 72.3633 -21.8262 72.3633 -20.3125 C 72.3633 -19.6777 72.4609 -19.0918 72.6562 -18.5059 C 74.2188 -13.3301 80.1758 -9.0332 87.5977 -9.0332 Z"/>
  </g>
  <g id="Thin-L" transform="matrix(1 0 0 1 783.693 1556)">
   <path d="M 72.7051 26.3184 C 106.494 26.3184 134.18 -1.36719 134.18 -35.1074 C 134.18 -57.5684 121.973 -77.2949 103.76 -88.0371 C 102.686 -88.7207 101.465 -88.3789 100.928 -87.4512 C 100.439 -86.4746 100.732 -85.3027 101.709 -84.668 C 118.75 -74.6582 130.176 -56.25 130.176 -35.1074 C 130.176 -3.41797 104.443 22.3145 72.7051 22.3145 C 41.0156 22.3145 15.2832 -3.41797 15.2832 -35.1074 C 15.2832 -63.1836 35.4492 -86.6211 62.1094 -91.6016 L 62.1094 -79.0039 C 62.1094 -76.7578 63.7207 -75.9277 65.7715 -77.3926 L 84.6191 -90.5273 C 86.3281 -91.748 86.3281 -93.3594 84.6191 -94.5801 L 65.8203 -107.715 C 63.7207 -109.18 62.1094 -108.35 62.1094 -106.104 L 62.1094 -95.6543 C 33.3496 -90.5762 11.2793 -65.2832 11.2793 -35.1074 C 11.2793 -1.36719 38.9648 26.3184 72.7051 26.3184 Z M 53.0273 -10.4492 C 54.1016 -10.4492 54.8828 -11.2793 54.8828 -12.5 L 54.8828 -57.4219 C 54.8828 -58.6914 54.1016 -59.5703 52.7344 -59.5703 C 51.7578 -59.5703 51.1719 -59.3262 50 -58.5938 L 38.5742 -51.123 C 37.8418 -50.6348 37.5488 -50.1953 37.5488 -49.4629 C 37.5488 -48.4375 38.3301 -47.6562 39.3066 -47.6562 C 39.7949 -47.6562 40.0391 -47.8027 40.4297 -48.0957 L 50.8789 -54.8828 L 51.2207 -54.8828 L 51.2207 -12.5 C 51.2207 -11.2793 51.9531 -10.4492 53.0273 -10.4492 Z M 86.6211 -9.32617 C 96.8262 -9.32617 103.711 -15.8203 103.711 -25.5371 C 103.711 -34.5215 97.3145 -41.1621 88.0859 -41.1621 C 83.3984 -41.1621 78.8086 -38.9648 76.3184 -35.4492 L 76.0742 -35.4492 L 77.6855 -54.9316 L 100.342 -54.9316 C 101.367 -54.9316 102.148 -55.6641 102.148 -56.6895 C 102.148 -57.7148 101.367 -58.3496 100.342 -58.3496 L 76.9043 -58.3496 C 75.1953 -58.3496 74.2188 -57.4219 74.1211 -55.7129 L 72.4609 -33.6426 C 72.3633 -32.1777 73.0957 -31.2988 74.5605 -31.2988 C 75.5371 -31.2988 76.0254 -31.6406 76.8555 -32.373 C 80.3223 -36.2305 83.4961 -37.6953 87.6465 -37.6953 C 94.873 -37.6953 99.9023 -32.7148 99.9023 -25.4395 C 99.9023 -18.1152 94.3359 -12.6953 86.9141 -12.6953 C 81.25 -12.6953 76.3184 -16.1133 75.0488 -20.6055 C 74.7559 -21.6797 74.1211 -22.168 73.1445 -22.168 C 72.168 -22.168 71.4844 -21.4355 71.4844 -20.459 C 71.4844 -19.9707 71.5332 -19.6289 71.6309 -19.2383 C 73.0957 -13.5254 79.3457 -9.32617 86.6211 -9.32617 Z"/>
  </g>
  <g id="Ultralight-L" transform="matrix(1 0 0 1 487.616 1556)">
   <path d="M 72.1191 25.7324 C 105.566 25.7324 132.91 -1.61133 132.91 -35.1074 C 132.91 -57.8125 120.361 -77.6855 101.758 -88.1836 C 101.025 -88.623 100.293 -88.3301 100 -87.7441 C 99.707 -87.1582 99.9023 -86.377 100.537 -86.0352 C 118.408 -75.9277 130.42 -56.8848 130.42 -35.1074 C 130.42 -2.97852 104.248 23.2422 72.1191 23.2422 C 39.9414 23.2422 13.7695 -2.97852 13.7695 -35.1074 C 13.7695 -63.7207 34.5703 -87.6465 61.8164 -92.4805 L 61.8164 -79.1504 C 61.8164 -77.3926 63.0859 -76.6113 64.8926 -77.8809 L 83.3984 -90.8203 C 84.8633 -91.8457 84.8633 -93.1641 83.3984 -94.1895 L 64.8926 -107.129 C 63.0859 -108.398 61.8164 -107.617 61.8164 -105.859 L 61.8164 -95.0195 C 33.2031 -90.1367 11.2793 -65.0391 11.2793 -35.1074 C 11.2793 -1.61133 38.623 25.7324 72.1191 25.7324 Z M 52.1973 -10.6934 C 52.9297 -10.6934 53.6133 -11.3281 53.6133 -12.207 L 53.6133 -58.3008 C 53.6133 -59.1309 52.9297 -59.8145 51.9043 -59.8145 C 51.123 -59.8145 50.6836 -59.6191 49.7559 -59.082 L 37.7441 -51.2695 C 37.1582 -50.9277 36.9629 -50.5859 36.9629 -50 C 36.9629 -49.2676 37.5 -48.7305 38.2812 -48.7305 C 38.623 -48.7305 38.7207 -48.7793 38.9648 -48.9746 L 50.3906 -56.2988 L 50.8301 -56.2988 L 50.8301 -12.207 C 50.8301 -11.3281 51.3672 -10.6934 52.1973 -10.6934 Z M 86.1328 -9.42383 C 96.2402 -9.42383 103.174 -15.918 103.174 -25.5371 C 103.174 -34.4238 96.7285 -41.1133 87.4512 -41.1133 C 82.6172 -41.1133 77.9297 -38.8184 75.293 -35.2539 L 74.9023 -35.2539 L 76.6113 -55.9082 L 100.098 -55.9082 C 101.025 -55.9082 101.562 -56.4941 101.562 -57.2754 C 101.562 -58.0078 101.025 -58.4961 100.098 -58.4961 L 75.9766 -58.4961 C 74.6094 -58.4961 73.8281 -57.8125 73.7305 -56.4453 L 72.0215 -33.4961 C 71.9727 -32.4219 72.5098 -31.6895 73.6816 -31.6895 C 74.4141 -31.6895 74.8047 -31.9824 75.3906 -32.5684 C 79.1504 -36.8164 82.5684 -38.4277 87.1094 -38.4277 C 94.8242 -38.4277 100.244 -33.1543 100.244 -25.4395 C 100.244 -17.7246 94.3359 -12.0117 86.377 -12.0117 C 80.3223 -12.0117 74.9512 -15.6738 73.8281 -20.5078 C 73.6328 -21.3867 73.1445 -21.8262 72.3145 -21.8262 C 71.5332 -21.8262 71.0449 -21.2891 71.0449 -20.5078 C 71.0449 -20.166 71.0449 -19.873 71.0938 -19.5801 C 72.5098 -13.623 78.9551 -9.42383 86.1328 -9.42383 Z"/>
  </g>
  <g id="Black-M" transform="matrix(1 0 0 1 2870.97 1126)">
   <path d="M 62.4023 18.4082 C 91.9922 18.4082 116.113 -5.66406 116.113 -35.2539 C 116.113 -47.9492 110.303 -64.0137 101.758 -71.7773 C 96.8262 -76.2207 91.5039 -76.4648 87.8906 -72.8516 C 83.7891 -68.7988 85.1074 -63.2324 88.7695 -58.9355 C 94.5801 -51.9531 97.8027 -44.3848 97.8027 -35.2539 C 97.8027 -15.7227 81.9824 0.146484 62.4023 0.146484 C 42.8711 0.146484 27.002 -15.7227 27.002 -35.2539 C 27.002 -50.1953 36.2305 -62.9395 49.3164 -68.1641 L 49.3164 -61.3281 C 49.3164 -56.3965 53.9551 -54.7363 58.6426 -58.2031 L 79.248 -73.5352 C 82.8613 -76.2207 82.7637 -80.7617 79.248 -83.3984 L 58.5938 -98.7305 C 54.0527 -102.148 49.3164 -100.684 49.3164 -95.6543 L 49.3164 -87.3047 C 26.0254 -81.4453 8.74023 -60.3516 8.74023 -35.2539 C 8.74023 -5.66406 32.8125 18.4082 62.4023 18.4082 Z M 50.7812 -12.793 C 54.1992 -12.793 56.4941 -14.9902 56.4941 -18.6035 L 56.4941 -46.4355 C 56.4941 -51.2695 53.4668 -53.8574 49.1699 -53.8574 C 46.7285 -53.8574 44.5312 -53.125 41.9434 -50.5859 L 37.5488 -46.1914 C 35.4004 -44.043 34.5215 -42.627 34.5215 -40.5273 C 34.5215 -38.0859 36.4746 -36.1816 38.916 -36.1816 C 40.6738 -36.1816 41.9434 -36.7188 43.0664 -38.4766 L 44.7266 -41.1621 L 45.1172 -41.1621 L 45.1172 -18.6035 C 45.1172 -14.9902 47.3145 -12.793 50.7812 -12.793 Z M 73.8281 -12.793 C 82.666 -12.793 88.1348 -18.3594 88.1348 -27.3926 C 88.1348 -35.2051 82.959 -39.3555 77.5879 -39.3555 C 74.4629 -39.3555 71.9727 -38.0371 70.459 -35.7422 L 70.0684 -35.7422 L 70.6543 -43.9941 L 81.8359 -43.9941 C 85.0098 -43.9941 86.8164 -45.9961 86.8164 -48.8281 C 86.8164 -51.6602 85.0586 -53.5645 81.8359 -53.5645 L 66.748 -53.5645 C 63.3789 -53.5645 61.4746 -51.2695 61.2793 -47.2656 L 60.6445 -33.8867 C 60.4492 -30.4688 62.5488 -28.3691 65.8203 -28.3691 C 68.457 -28.3691 69.043 -29.0039 69.9707 -29.7363 C 70.9961 -30.5176 72.0703 -31.25 73.6816 -31.25 C 76.5137 -31.25 77.9297 -29.248 77.9297 -26.9043 C 77.9297 -24.3652 76.2695 -22.3145 73.9746 -22.3145 C 71.582 -22.3145 70.5566 -23.6816 69.2383 -25.0488 C 68.5059 -25.8301 67.5781 -26.5137 65.7227 -26.5137 C 62.9883 -26.5137 61.0352 -24.5605 61.0352 -21.875 C 61.0352 -20.9473 61.1328 -20.1172 61.6699 -18.9453 C 62.9883 -16.2109 67.4805 -12.793 73.8281 -12.793 Z"/>
  </g>
  <g id="Heavy-M" transform="matrix(1 0 0 1 2575.19 1126)">
   <path d="M 61.5234 17.5293 C 90.5273 17.5293 114.258 -6.20117 114.258 -35.2539 C 114.258 -48.8281 107.861 -64.5996 98.3887 -72.6562 C 94.1406 -76.4648 89.4043 -76.5137 86.377 -73.291 C 82.959 -69.6777 84.082 -64.8926 87.3535 -61.2793 C 94.2871 -54.1992 98.3398 -45.5078 98.3398 -35.2539 C 98.3398 -14.8926 81.8848 1.61133 61.5234 1.61133 C 41.1133 1.61133 24.6582 -14.8926 24.6582 -35.2539 C 24.6582 -51.3672 34.9121 -64.9902 49.2676 -70.0195 L 49.2676 -63.0371 C 49.2676 -58.4473 53.3691 -56.9824 57.5684 -60.0586 L 77.002 -74.3652 C 80.3223 -76.8066 80.2246 -80.8105 77.002 -83.2031 L 57.5684 -97.5098 C 53.418 -100.586 49.2676 -99.2676 49.2676 -94.5312 L 49.2676 -86.5723 C 26.0742 -81.0059 8.74023 -60.1074 8.74023 -35.2539 C 8.74023 -6.20117 32.4707 17.5293 61.5234 17.5293 Z M 49.1699 -13.3789 C 52.2461 -13.3789 54.2969 -15.332 54.2969 -18.6035 L 54.2969 -47.1191 C 54.2969 -51.416 51.6602 -53.7109 47.9004 -53.7109 C 45.7031 -53.7109 43.75 -53.0273 41.4062 -50.8301 L 36.4746 -46.4355 C 34.5703 -44.5801 33.7891 -43.2617 33.7891 -41.4062 C 33.7891 -39.1602 35.5469 -37.3535 37.793 -37.3535 C 39.3555 -37.3535 40.4297 -37.8418 41.5039 -39.3555 L 43.8477 -42.2363 L 44.1406 -42.2363 L 44.1406 -18.6035 C 44.1406 -15.332 46.0938 -13.3789 49.1699 -13.3789 Z M 72.6562 -13.2324 C 81.2988 -13.2324 86.7676 -18.7012 86.7676 -27.4902 C 86.7676 -35.1562 81.6406 -39.502 75.9277 -39.502 C 72.8027 -39.502 70.1172 -38.1348 68.6523 -35.8398 L 68.4082 -35.8398 L 69.043 -44.7266 L 81.0547 -44.7266 C 83.7891 -44.7266 85.498 -46.5332 85.498 -49.0723 C 85.498 -51.6602 83.8379 -53.3203 81.0547 -53.3203 L 65.8691 -53.3203 C 62.6953 -53.3203 60.8398 -51.2695 60.6445 -47.5586 L 59.9609 -34.0332 C 59.7656 -30.8594 61.6211 -28.9551 64.6484 -28.9551 C 67.041 -28.9551 67.6758 -29.4922 68.7012 -30.3223 C 69.9219 -31.3477 71.0938 -32.0801 72.8027 -32.0801 C 75.8301 -32.0801 77.4902 -29.834 77.4902 -27.0508 C 77.4902 -24.1211 75.5371 -21.8262 72.8516 -21.8262 C 70.3613 -21.8262 68.9453 -23.2422 67.6758 -24.9023 C 66.9434 -25.8301 66.0156 -26.4648 64.2578 -26.4648 C 61.8164 -26.4648 60.1074 -24.707 60.1074 -22.2656 C 60.1074 -21.3867 60.1562 -20.6055 60.6445 -19.5801 C 61.9629 -16.6504 66.4062 -13.2324 72.6562 -13.2324 Z"/>
  </g>
  <g id="Bold-M" transform="matrix(1 0 0 1 2279.5 1126)">
   <path d="M 60.498 16.5039 C 88.8672 16.5039 112.207 -6.83594 112.207 -35.2539 C 112.207 -49.8047 105.176 -65.2344 94.6289 -73.6328 C 91.1133 -76.709 87.0605 -76.5625 84.668 -73.7793 C 81.9824 -70.7031 82.959 -66.748 85.791 -63.8672 C 93.8965 -56.6406 98.9258 -46.7773 98.9258 -35.2539 C 98.9746 -13.9648 81.7871 3.22266 60.498 3.22266 C 39.1602 3.22266 22.0703 -13.9648 22.0703 -35.2539 C 22.0703 -52.6367 33.4473 -67.2363 49.2188 -72.0215 L 49.2188 -64.9902 C 49.2188 -60.791 52.7344 -59.5215 56.3965 -62.1582 L 74.5117 -75.293 C 77.4414 -77.4414 77.3926 -80.8594 74.5117 -82.959 L 56.4453 -96.1426 C 52.7832 -98.7793 49.2188 -97.6074 49.2188 -93.3105 L 49.2188 -85.7422 C 26.1719 -80.5664 8.74023 -59.8145 8.74023 -35.2539 C 8.74023 -6.83594 32.0801 16.5039 60.498 16.5039 Z M 47.4121 -14.0137 C 50.0977 -14.0137 51.8066 -15.7715 51.8066 -18.6035 L 51.8066 -47.9004 C 51.8066 -51.6113 49.6582 -53.5645 46.4355 -53.5645 C 44.5312 -53.5645 42.9199 -52.9297 40.7715 -51.123 L 35.2539 -46.6309 C 33.5938 -45.166 32.9102 -43.9941 32.9102 -42.3828 C 32.9102 -40.3809 34.5215 -38.7207 36.5234 -38.7207 C 37.8906 -38.7207 38.7695 -39.1113 39.7461 -40.332 L 42.9199 -43.4082 L 43.0664 -43.4082 L 43.0664 -18.6035 C 43.0664 -15.7715 44.7754 -14.0137 47.4121 -14.0137 Z M 71.3379 -13.7207 C 79.7852 -13.7207 85.2051 -19.0918 85.2051 -27.5391 C 85.2051 -35.0586 80.2246 -39.6973 74.0234 -39.6973 C 70.9473 -39.6973 68.0176 -38.2812 66.6016 -35.8887 L 66.5527 -35.8887 L 67.2363 -45.5078 L 80.1758 -45.5078 C 82.4707 -45.5078 83.9844 -47.1191 83.9844 -49.3652 C 83.9844 -51.6113 82.5195 -53.0762 80.1758 -53.0762 L 64.8438 -53.0762 C 61.8652 -53.0762 60.2051 -51.2207 60.0098 -47.9004 L 59.1309 -34.1797 C 58.9355 -31.2988 60.6445 -29.6387 63.3301 -29.6387 C 65.4297 -29.6387 66.1133 -30.0781 67.2363 -31.0059 C 68.7012 -32.2266 69.9707 -32.959 71.7773 -32.959 C 75.0488 -32.959 77.0508 -30.5664 77.0508 -27.2949 C 77.0508 -23.877 74.707 -21.2891 71.5332 -21.2891 C 68.9453 -21.2891 67.1875 -22.7539 65.8691 -24.707 C 65.1367 -25.7812 64.2578 -26.416 62.6953 -26.416 C 60.5469 -26.416 58.9844 -24.9023 58.9844 -22.7051 C 58.9844 -21.875 59.082 -21.1914 59.5215 -20.2637 C 60.8398 -17.1387 65.2344 -13.7207 71.3379 -13.7207 Z"/>
  </g>
  <g id="Semibold-M" transform="matrix(1 0 0 1 1983.5 1126)">
   <path d="M 59.7656 15.7715 C 87.7441 15.7715 110.791 -7.27539 110.791 -35.2539 C 110.791 -50.4883 103.32 -65.6738 92.041 -74.3164 C 89.0137 -76.9043 85.4492 -76.5625 83.4961 -74.0723 C 81.3477 -71.3867 82.2266 -68.0664 84.7168 -65.6738 C 93.6523 -58.3984 99.3164 -47.6074 99.3652 -35.2539 C 99.3652 -13.3301 81.6895 4.3457 59.7656 4.3457 C 37.8418 4.3457 20.2637 -13.3301 20.2637 -35.2539 C 20.2637 -53.5156 32.4219 -68.7988 49.1699 -73.3887 L 49.1699 -66.3086 C 49.1699 -62.4023 52.2949 -61.2305 55.6152 -63.623 L 72.7539 -75.9277 C 75.4395 -77.8809 75.4395 -80.9082 72.7539 -82.8125 L 55.6152 -95.166 C 52.2949 -97.5586 49.1699 -96.4844 49.1699 -92.4805 L 49.1699 -85.1562 C 26.2207 -80.2246 8.74023 -59.6191 8.74023 -35.2539 C 8.74023 -7.27539 31.7871 15.7715 59.7656 15.7715 Z M 46.1914 -14.4531 C 48.584 -14.4531 50.0977 -16.0645 50.0977 -18.6035 L 50.0977 -48.4375 C 50.0977 -51.709 48.291 -53.418 45.459 -53.418 C 43.75 -53.418 42.3828 -52.8809 40.3809 -51.2695 L 34.375 -46.7773 C 32.959 -45.5566 32.3242 -44.4824 32.3242 -43.0664 C 32.3242 -41.1621 33.7891 -39.6484 35.6445 -39.6484 C 36.8652 -39.6484 37.5977 -39.9414 38.5742 -41.0156 L 42.2852 -44.1895 L 42.334 -44.1895 L 42.334 -18.6035 C 42.334 -16.0645 43.8477 -14.4531 46.1914 -14.4531 Z M 70.459 -14.0625 C 78.7598 -14.0625 84.1797 -19.3848 84.1797 -27.6367 C 84.1797 -35.0098 79.1992 -39.8438 72.7539 -39.8438 C 69.6777 -39.8438 66.6504 -38.3789 65.2832 -36.0352 L 66.0156 -46.0938 L 79.5898 -46.0938 C 81.543 -46.0938 82.959 -47.5098 82.959 -49.5605 C 82.959 -51.6113 81.543 -52.9297 79.5898 -52.9297 L 64.1113 -52.9297 C 61.3281 -52.9297 59.7168 -51.2207 59.5215 -48.1445 L 58.5938 -34.3262 C 58.3984 -31.5918 59.9121 -30.0781 62.4023 -30.0781 C 64.3555 -30.0781 65.0391 -30.5176 66.2598 -31.4941 C 67.8711 -32.8613 69.2383 -33.5938 71.0938 -33.5938 C 74.5605 -33.5938 76.709 -31.0547 76.709 -27.3926 C 76.709 -23.6816 74.1699 -20.8984 70.6543 -20.8984 C 67.9688 -20.8984 65.918 -22.4609 64.6484 -24.6094 C 63.916 -25.7324 63.0371 -26.416 61.5723 -26.416 C 59.6191 -26.416 58.252 -25 58.252 -22.998 C 58.252 -22.2656 58.3496 -21.5332 58.7402 -20.752 C 60.0586 -17.4805 64.4043 -14.0625 70.459 -14.0625 Z"/>
  </g>
  <g id="Medium-M" transform="matrix(1 0 0 1 1687.3 1126)">
   <path d="M 59.2285 15.2832 C 86.9141 15.2832 109.766 -7.56836 109.766 -35.2539 C 109.766 -51.0254 101.904 -65.9668 90.0879 -74.8535 C 87.4512 -77.002 84.2285 -76.6113 82.6172 -74.3164 C 80.8594 -71.9238 81.6406 -69.043 83.8867 -67.041 C 93.5059 -59.668 99.6094 -48.291 99.6582 -35.2539 C 99.707 -12.8418 81.6406 5.17578 59.2285 5.17578 C 36.8164 5.17578 18.8965 -12.8418 18.8965 -35.2539 C 18.8965 -54.1992 31.6895 -69.9707 49.1699 -74.4141 L 49.1699 -67.334 C 49.1699 -63.5742 51.9531 -62.5488 54.9805 -64.7461 L 71.4844 -76.416 C 73.9258 -78.2227 73.9746 -80.957 71.4844 -82.7148 L 55.0293 -94.4336 C 51.9531 -96.6309 49.1699 -95.6543 49.1699 -91.8457 L 49.1699 -84.7168 C 26.2207 -79.9805 8.74023 -59.4727 8.74023 -35.2539 C 8.74023 -7.56836 31.5918 15.2832 59.2285 15.2832 Z M 45.2637 -14.7949 C 47.4609 -14.7949 48.8281 -16.2598 48.8281 -18.6035 L 48.8281 -48.877 C 48.8281 -51.8066 47.2656 -53.3203 44.6777 -53.3203 C 43.1152 -53.3203 41.9434 -52.832 40.0391 -51.416 L 33.7402 -46.9238 C 32.4219 -45.8496 31.8359 -44.873 31.8359 -43.5547 C 31.8359 -41.7969 33.252 -40.332 34.9609 -40.332 C 36.084 -40.332 36.7188 -40.625 37.6465 -41.5039 L 41.748 -44.8242 L 41.748 -18.6035 C 41.748 -16.3086 43.1152 -14.7949 45.2637 -14.7949 Z M 69.7754 -14.3066 C 77.9785 -14.3066 83.3496 -19.5801 83.3496 -27.6855 C 83.3496 -34.9609 78.4668 -39.9414 71.7773 -39.9414 C 68.7988 -39.9414 65.6738 -38.5254 64.3066 -36.2305 L 65.0879 -46.4844 L 79.1016 -46.4844 C 80.8594 -46.4844 82.1777 -47.8516 82.1777 -49.707 C 82.1777 -51.5625 80.8594 -52.7832 79.1016 -52.7832 L 63.5742 -52.7832 C 60.8887 -52.7832 59.375 -51.1719 59.1797 -48.3398 L 58.2031 -34.4238 C 57.959 -31.7871 59.4238 -30.4688 61.7188 -30.4688 C 63.5254 -30.4688 64.209 -30.8105 65.5273 -31.8359 C 67.2363 -33.3496 68.6523 -34.0332 70.5566 -34.0332 C 74.1699 -34.0332 76.5137 -31.3965 76.5137 -27.5391 C 76.5137 -23.5352 73.7305 -20.6055 70.0195 -20.6055 C 67.2363 -20.6055 64.9902 -22.168 63.7207 -24.5117 C 62.9883 -25.6836 62.1094 -26.3672 60.7422 -26.3672 C 58.9355 -26.3672 57.666 -25.0977 57.666 -23.2422 C 57.666 -22.5098 57.8125 -21.8262 58.1055 -21.0938 C 59.4238 -17.7246 63.7695 -14.3066 69.7754 -14.3066 Z"/>
  </g>
  <g id="Regular-M" transform="matrix(1 0 0 1 1391.3 1126)">
   <path d="M 58.5449 14.5508 C 85.791 14.5508 108.35 -8.00781 108.35 -35.2539 C 108.35 -51.6602 100.049 -66.4062 87.5 -75.5371 C 85.3516 -77.1973 82.666 -76.6602 81.4453 -74.6582 C 80.2246 -72.6074 80.8594 -70.3125 82.8613 -68.7988 C 93.2617 -61.377 100 -49.1211 100.049 -35.2539 C 100.098 -12.207 81.5918 6.25 58.5449 6.25 C 35.498 6.25 17.0898 -12.207 17.0898 -35.2539 C 17.0898 -55.0293 30.6641 -71.4844 49.1211 -75.6836 L 49.1211 -68.6523 C 49.1211 -65.1855 51.5137 -64.2578 54.1992 -66.1621 L 69.7754 -77.0996 C 71.9727 -78.6133 72.0215 -80.957 69.7754 -82.5684 L 54.248 -93.5059 C 51.5137 -95.459 49.1211 -94.5312 49.1211 -91.0156 L 49.1211 -84.1309 C 26.2695 -79.6875 8.74023 -59.2773 8.74023 -35.2539 C 8.74023 -8.00781 31.3477 14.5508 58.5449 14.5508 Z M 44.043 -15.2344 C 45.9473 -15.2344 47.168 -16.5527 47.168 -18.6035 L 47.168 -49.4141 C 47.168 -51.9043 45.8984 -53.2227 43.7012 -53.2227 C 42.334 -53.2227 41.3574 -52.7832 39.6484 -51.6113 L 32.9102 -47.0703 C 31.7871 -46.2402 31.25 -45.3613 31.25 -44.2383 C 31.25 -42.627 32.5195 -41.2598 34.082 -41.2598 C 35.0586 -41.2598 35.5469 -41.4551 36.4746 -42.1875 L 41.0645 -45.5566 L 41.0645 -18.6035 C 41.0645 -16.6016 42.2363 -15.2344 44.043 -15.2344 Z M 68.8477 -14.6484 C 76.9531 -14.6484 82.3242 -19.873 82.3242 -27.7344 C 82.3242 -34.9121 77.4902 -40.0391 70.5078 -40.0391 C 67.627 -40.0391 64.502 -38.7207 63.0371 -36.5234 L 63.8672 -47.0703 L 78.5156 -47.0703 C 79.9316 -47.0703 81.1523 -48.2422 81.1523 -49.9023 C 81.1523 -51.5625 79.9316 -52.6367 78.5156 -52.6367 L 62.8906 -52.6367 C 60.3516 -52.6367 58.9355 -51.1719 58.6914 -48.584 L 57.6172 -34.5215 C 57.4219 -32.0801 58.6914 -30.9082 60.8398 -30.9082 C 62.4512 -30.9082 63.1348 -31.2012 64.5508 -32.2754 C 66.4062 -33.9844 67.9199 -34.668 69.8242 -34.668 C 73.6328 -34.668 76.1719 -31.8848 76.1719 -27.6367 C 76.1719 -23.3398 73.1934 -20.2148 69.1406 -20.2148 C 66.2598 -20.2148 63.7695 -21.875 62.5 -24.4141 C 61.7676 -25.6836 60.8887 -26.3672 59.668 -26.3672 C 58.0566 -26.3672 56.9336 -25.1953 56.9336 -23.5352 C 56.9336 -22.8516 57.0801 -22.2168 57.3242 -21.582 C 58.6426 -18.0664 62.9395 -14.6484 68.8477 -14.6484 Z"/>
  </g>
  <g id="Light-M" transform="matrix(1 0 0 1 1095.42 1126)">
   <path d="M 57.7148 13.7695 C 84.5215 13.7695 106.689 -8.39844 106.689 -35.2051 C 106.689 -52.002 97.9492 -66.9434 84.8145 -75.7324 C 83.1543 -77.002 81.1523 -76.5625 80.2246 -75.0488 C 79.2969 -73.4863 79.7852 -71.7285 81.2988 -70.6055 C 92.7734 -63.0371 100.342 -50.0488 100.391 -35.2051 C 100.391 -11.5723 81.3477 7.4707 57.7148 7.4707 C 34.082 7.4707 15.0879 -11.5723 15.0879 -35.2051 C 15.0879 -55.7617 29.4434 -72.8027 48.7305 -76.9043 L 48.7305 -68.8477 C 48.7305 -66.0156 50.6836 -65.1855 52.9785 -66.7969 L 68.1641 -77.4414 C 70.0684 -78.8086 70.1172 -80.7129 68.1641 -82.0801 L 53.0273 -92.7246 C 50.6836 -94.3359 48.7305 -93.5547 48.7305 -90.6738 L 48.7305 -83.3496 C 26.123 -79.1016 8.74023 -58.9844 8.74023 -35.2051 C 8.74023 -8.39844 30.9082 13.7695 57.7148 13.7695 Z M 42.9199 -15.5273 C 44.4336 -15.5273 45.4102 -16.6016 45.4102 -18.2617 L 45.4102 -50.5371 C 45.4102 -52.4902 44.3848 -53.5645 42.627 -53.5645 C 41.5039 -53.5645 40.7227 -53.2227 39.3066 -52.2461 L 31.7871 -47.2656 C 30.8594 -46.6309 30.4688 -45.8984 30.4688 -45.0195 C 30.4688 -43.7012 31.4453 -42.627 32.7148 -42.627 C 33.4473 -42.627 33.8379 -42.7734 34.5215 -43.3105 L 40.4785 -47.4609 L 40.5273 -47.4609 L 40.5273 -18.2617 C 40.5273 -16.6016 41.4551 -15.5273 42.9199 -15.5273 Z M 68.2129 -14.8438 C 76.2207 -14.8438 81.5918 -19.9707 81.5918 -27.7344 C 81.5918 -34.8145 76.709 -39.9902 69.6777 -39.9902 C 66.4062 -39.9902 63.0371 -38.4277 61.4746 -35.9375 L 62.5 -48.3398 L 78.2227 -48.3398 C 79.3945 -48.3398 80.4199 -49.3164 80.4199 -50.6348 C 80.4199 -51.9531 79.3945 -52.832 78.2227 -52.832 L 61.6211 -52.832 C 59.5703 -52.832 58.3984 -51.6602 58.2031 -49.5117 L 57.0801 -34.3262 C 56.9336 -32.373 57.9102 -31.3965 59.668 -31.3965 C 60.9863 -31.3965 61.5234 -31.6895 62.6465 -32.5684 C 64.8438 -34.7656 66.6992 -35.5957 69.1406 -35.5957 C 73.584 -35.5957 76.6602 -32.4219 76.6602 -27.6367 C 76.6602 -22.8516 73.1445 -19.2871 68.457 -19.2871 C 64.9902 -19.2871 62.0117 -21.2891 60.8398 -24.2188 C 60.3027 -25.293 59.5703 -25.8789 58.5449 -25.8789 C 57.2266 -25.8789 56.3477 -24.9512 56.3477 -23.6328 C 56.3477 -23.0469 56.4453 -22.5586 56.6406 -22.0703 C 57.9102 -18.1641 62.4023 -14.8438 68.2129 -14.8438 Z"/>
  </g>
  <g id="Thin-M" transform="matrix(1 0 0 1 799.806 1126)">
   <path d="M 56.6406 12.7441 C 82.9102 12.7441 104.492 -8.83789 104.492 -35.1562 C 104.492 -52.4414 95.166 -67.627 81.25 -76.0742 C 80.2734 -76.7578 79.1016 -76.4648 78.6133 -75.5859 C 78.125 -74.6582 78.3691 -73.584 79.2969 -72.998 C 92.1875 -65.2344 100.781 -51.2207 100.781 -35.1562 C 100.781 -10.791 81.0059 8.98438 56.6406 8.98438 C 32.2266 8.98438 12.4512 -10.791 12.4512 -35.1562 C 12.4512 -56.6895 27.8809 -74.6094 48.2422 -78.5156 L 48.2422 -69.0918 C 48.2422 -67.1387 49.6094 -66.4551 51.3672 -67.6758 L 66.0645 -77.9785 C 67.5293 -79.0039 67.5293 -80.3711 66.0645 -81.3965 L 51.3672 -91.6504 C 49.6094 -92.9199 48.2422 -92.2363 48.2422 -90.2344 L 48.2422 -82.2754 C 25.8789 -78.3203 8.74023 -58.5938 8.74023 -35.1562 C 8.74023 -8.83789 30.3223 12.7441 56.6406 12.7441 Z M 41.4551 -15.918 C 42.4316 -15.918 43.1152 -16.6504 43.1152 -17.7246 L 43.1152 -52.0508 C 43.1152 -53.2227 42.3828 -54.0039 41.2109 -54.0039 C 40.3809 -54.0039 39.8926 -53.7598 38.8672 -53.125 L 30.2734 -47.5098 C 29.6387 -47.0703 29.3945 -46.6309 29.3945 -45.9961 C 29.3945 -45.1172 30.0293 -44.4336 30.9082 -44.4336 C 31.3477 -44.4336 31.543 -44.5312 31.9336 -44.8242 L 39.5996 -49.9023 L 39.8438 -49.9023 L 39.8438 -17.7246 C 39.8438 -16.6504 40.4785 -15.918 41.4551 -15.918 Z M 67.334 -15.0879 C 75.2441 -15.0879 80.6152 -20.166 80.6152 -27.7344 C 80.6152 -34.7168 75.6836 -39.8438 68.5547 -39.8438 C 64.9902 -39.8438 61.4258 -38.1348 59.5703 -35.498 L 59.4238 -35.498 L 60.6445 -50.0977 L 77.832 -50.0977 C 78.7598 -50.0977 79.3945 -50.7324 79.3945 -51.6113 C 79.3945 -52.5391 78.7598 -53.0762 77.832 -53.0762 L 60.0098 -53.0762 C 58.5449 -53.0762 57.666 -52.2949 57.5684 -50.7812 L 56.3477 -34.082 C 56.25 -32.7637 56.8848 -32.0312 58.1543 -32.0312 C 59.0332 -32.0312 59.4238 -32.2754 60.1562 -32.9102 C 62.7441 -35.791 65.0879 -36.8652 68.1641 -36.8652 C 73.5352 -36.8652 77.2461 -33.1055 77.2461 -27.6367 C 77.2461 -22.1191 73.1445 -18.0664 67.5781 -18.0664 C 63.3789 -18.0664 59.7168 -20.5566 58.6914 -23.9746 C 58.3984 -24.8535 57.8613 -25.2441 57.0801 -25.2441 C 56.1523 -25.2441 55.6152 -24.6094 55.6152 -23.7305 C 55.6152 -23.3398 55.6152 -22.998 55.7129 -22.7051 C 56.8848 -18.3594 61.6699 -15.0879 67.334 -15.0879 Z"/>
  </g>
  <g id="Ultralight-M" transform="matrix(1 0 0 1 503.656 1126)">
   <path d="M 56.0547 12.207 C 82.0801 12.207 103.369 -9.08203 103.369 -35.1562 C 103.369 -52.6855 93.75 -68.0176 79.4434 -76.2207 C 78.8086 -76.6113 78.0762 -76.3672 77.7832 -75.8789 C 77.4902 -75.2441 77.6855 -74.5605 78.2715 -74.1699 C 91.8457 -66.4062 100.977 -51.8066 100.977 -35.1562 C 100.977 -10.3516 80.8594 9.81445 56.0547 9.81445 C 31.2988 9.81445 11.1328 -10.3516 11.1328 -35.1562 C 11.1328 -57.1289 27.0508 -75.5371 47.998 -79.3457 L 47.998 -69.2383 C 47.998 -67.7246 49.0723 -67.0898 50.5371 -68.1641 L 64.9902 -78.2227 C 66.2109 -79.1016 66.2109 -80.1758 64.9902 -81.0547 L 50.5371 -91.1133 C 49.0723 -92.1875 47.998 -91.5527 47.998 -90.0391 L 47.998 -81.7383 C 25.7812 -77.8809 8.74023 -58.3984 8.74023 -35.1562 C 8.74023 -9.08203 30.0293 12.207 56.0547 12.207 Z M 40.7227 -16.1621 C 41.3574 -16.1621 41.9434 -16.6992 41.9434 -17.4805 L 41.9434 -52.832 C 41.9434 -53.6133 41.3574 -54.248 40.4785 -54.248 C 39.7949 -54.248 39.4531 -54.0527 38.623 -53.5645 L 29.4922 -47.6074 C 29.0039 -47.3145 28.8086 -47.0215 28.8086 -46.5332 C 28.8086 -45.8496 29.2969 -45.3613 29.9805 -45.3613 C 30.2734 -45.3613 30.4199 -45.4102 30.6152 -45.6055 L 39.1602 -51.123 L 39.502 -51.123 L 39.502 -17.4805 C 39.502 -16.6992 39.9902 -16.1621 40.7227 -16.1621 Z M 66.8945 -15.1855 C 74.7559 -15.1855 80.127 -20.2637 80.127 -27.7344 C 80.127 -34.6191 75.1465 -39.7949 67.9688 -39.7949 C 64.2578 -39.7949 60.6445 -38.0371 58.6426 -35.3027 L 58.3984 -35.3027 L 59.7168 -50.9766 L 77.6367 -50.9766 C 78.3691 -50.9766 78.8574 -51.4648 78.8574 -52.1484 C 78.8574 -52.7832 78.3691 -53.2227 77.6367 -53.2227 L 59.1309 -53.2227 C 58.0078 -53.2227 57.3242 -52.6367 57.2754 -51.4648 L 55.957 -33.9355 C 55.9082 -32.959 56.3965 -32.373 57.373 -32.373 C 58.0078 -32.373 58.3008 -32.6172 58.8867 -33.1055 C 61.6699 -36.2793 64.2578 -37.5 67.6758 -37.5 C 73.4863 -37.5 77.5879 -33.4961 77.5879 -27.6367 C 77.5879 -21.7773 73.1445 -17.4316 67.0898 -17.4316 C 62.5 -17.4316 58.4961 -20.2148 57.5684 -23.8281 C 57.373 -24.5605 56.9824 -24.9512 56.2988 -24.9512 C 55.6152 -24.9512 55.2246 -24.4629 55.2246 -23.7793 C 55.2246 -23.4863 55.1758 -23.2422 55.2734 -22.998 C 56.3965 -18.457 61.3281 -15.1855 66.8945 -15.1855 Z"/>
  </g>
  <g id="Black-S" transform="matrix(1 0 0 1 2884.57 696)">
   <path d="M 48.8281 6.73828 C 71.9727 6.73828 90.8203 -12.1094 90.8203 -35.2539 C 90.8203 -45.2637 86.2305 -57.8125 79.4922 -63.916 C 75.6836 -67.3828 71.5332 -67.5293 68.75 -64.7461 C 65.5762 -61.5723 66.6016 -57.2754 69.4336 -53.9551 C 74.0723 -48.4863 76.6602 -42.4805 76.6602 -35.2539 C 76.6602 -19.873 64.209 -7.42188 48.8281 -7.42188 C 33.4473 -7.42188 20.9961 -19.873 20.9961 -35.2539 C 20.9961 -47.0703 28.2715 -57.0801 38.623 -61.1816 L 38.623 -55.8105 C 38.623 -51.9531 42.2363 -50.6836 45.8496 -53.3691 L 61.9141 -65.2832 C 64.7461 -67.3828 64.6484 -70.8984 61.9141 -72.9492 L 45.8496 -84.9121 C 42.2852 -87.5488 38.623 -86.4258 38.623 -82.4707 L 38.623 -75.9766 C 20.3613 -71.4355 6.83594 -54.8828 6.83594 -35.2539 C 6.83594 -12.1094 25.6836 6.73828 48.8281 6.73828 Z M 39.6484 -17.6758 C 42.334 -17.6758 44.0918 -19.3848 44.0918 -22.2168 L 44.0918 -44.043 C 44.0918 -47.8027 41.748 -49.8047 38.4277 -49.8047 C 36.5234 -49.8047 34.8145 -49.2188 32.8125 -47.2656 L 29.3457 -43.8477 C 27.6855 -42.1875 27.002 -41.0645 27.002 -39.4531 C 27.002 -37.5488 28.5156 -36.0352 30.4199 -36.0352 C 31.7871 -36.0352 32.7637 -36.4746 33.6426 -37.8418 L 34.9609 -39.9414 L 35.2539 -39.9414 L 35.2539 -22.2168 C 35.2539 -19.3848 36.9629 -17.6758 39.6484 -17.6758 Z M 57.7637 -17.6758 C 64.6484 -17.6758 68.9453 -22.0215 68.9453 -29.1016 C 68.9453 -35.2051 64.8926 -38.4766 60.6445 -38.4766 C 58.2031 -38.4766 56.25 -37.4512 55.0781 -35.6445 L 54.7852 -35.6445 L 55.2246 -42.1387 L 64.0625 -42.1387 C 66.5039 -42.1387 67.9199 -43.7012 67.9199 -45.8984 C 67.9199 -48.0957 66.5527 -49.5605 64.0625 -49.5605 L 52.2461 -49.5605 C 49.6094 -49.5605 48.0957 -47.8027 47.9492 -44.6777 L 47.4609 -34.1797 C 47.3145 -31.543 48.9258 -29.8828 51.4648 -29.8828 C 53.5156 -29.8828 54.0039 -30.3711 54.7363 -30.957 C 55.5664 -31.5918 56.3965 -32.1777 57.666 -32.1777 C 59.8633 -32.1777 60.9863 -30.5664 60.9863 -28.7109 C 60.9863 -26.709 59.668 -25.0977 57.8613 -25.0977 C 56.0059 -25.0977 55.1758 -26.1719 54.1504 -27.2461 C 53.5645 -27.8809 52.832 -28.418 51.3672 -28.418 C 49.2676 -28.418 47.7539 -26.9043 47.7539 -24.8047 C 47.7539 -24.0723 47.8027 -23.4375 48.2422 -22.5098 C 49.2676 -20.3613 52.7832 -17.6758 57.7637 -17.6758 Z"/>
  </g>
  <g id="Heavy-S" transform="matrix(1 0 0 1 2588.47 696)">
   <path d="M 48.2422 6.15234 C 70.9961 6.15234 89.5996 -12.5 89.5996 -35.2539 C 89.5996 -45.8984 84.6191 -58.2031 77.1973 -64.5508 C 73.8281 -67.5781 70.1172 -67.5781 67.7246 -65.0391 C 65.0391 -62.1582 65.9668 -58.3984 68.5547 -55.5176 C 73.877 -50 77.002 -43.2617 77.0508 -35.2539 C 77.0508 -19.2871 64.1602 -6.44531 48.2422 -6.44531 C 32.2754 -6.44531 19.4336 -19.2871 19.4336 -35.2539 C 19.4336 -47.8516 27.3926 -58.4961 38.623 -62.4512 L 38.623 -57.1289 C 38.623 -53.4668 41.8945 -52.2949 45.166 -54.7363 L 60.4004 -65.8691 C 62.9883 -67.8223 62.9395 -70.9473 60.4004 -72.8516 L 45.2148 -84.0332 C 41.9434 -86.4746 38.623 -85.4004 38.623 -81.6895 L 38.623 -75.5371 C 20.459 -71.1426 6.83594 -54.7363 6.83594 -35.2539 C 6.83594 -12.5 25.4395 6.15234 48.2422 6.15234 Z M 38.5742 -18.0664 C 41.0156 -18.0664 42.5781 -19.6777 42.5781 -22.2656 L 42.5781 -44.4336 C 42.5781 -47.8516 40.5762 -49.6582 37.5488 -49.6582 C 35.8398 -49.6582 34.3262 -49.1211 32.4219 -47.3633 L 28.6133 -43.9941 C 27.1484 -42.5293 26.5137 -41.5039 26.5137 -40.0391 C 26.5137 -38.2324 27.9297 -36.8164 29.6875 -36.8164 C 30.957 -36.8164 31.7871 -37.1582 32.666 -38.3789 L 34.375 -40.5273 L 34.5703 -40.5273 L 34.5703 -22.2656 C 34.5703 -19.6777 36.1328 -18.0664 38.5742 -18.0664 Z M 56.9336 -18.0176 C 63.7207 -18.0176 67.9688 -22.2656 67.9688 -29.1504 C 67.9688 -35.1562 63.9648 -38.623 59.4727 -38.623 C 57.0312 -38.623 54.9316 -37.5488 53.8574 -35.7422 L 53.6621 -35.7422 L 54.1504 -42.5293 L 63.4766 -42.5293 C 65.625 -42.5293 66.9922 -43.9941 66.9922 -45.9961 C 66.9922 -48.0469 65.6738 -49.3652 63.4766 -49.3652 L 51.6602 -49.3652 C 49.1211 -49.3652 47.7051 -47.7051 47.5586 -44.8242 L 46.9727 -34.3262 C 46.8262 -31.7871 48.3398 -30.2734 50.6836 -30.2734 C 52.5879 -30.2734 53.125 -30.7129 53.9551 -31.3965 C 54.9316 -32.1289 55.7617 -32.666 57.0312 -32.666 C 59.375 -32.666 60.6445 -31.0059 60.6445 -28.8574 C 60.6445 -26.5625 59.1309 -24.8047 57.0801 -24.8047 C 55.1758 -24.8047 54.1504 -25.8789 53.125 -27.1484 C 52.4902 -27.8809 51.7578 -28.418 50.3906 -28.418 C 48.4863 -28.418 47.0703 -27.0508 47.0703 -25.0977 C 47.0703 -24.4141 47.168 -23.7793 47.5586 -22.9492 C 48.584 -20.6543 52.002 -18.0176 56.9336 -18.0176 Z"/>
  </g>
  <g id="Bold-S" transform="matrix(1 0 0 1 2292.44 696)">
   <path d="M 47.5586 5.46875 C 69.873 5.46875 88.2324 -12.9395 88.2324 -35.2539 C 88.2324 -46.6309 82.8125 -58.5938 74.6582 -65.2832 C 71.8262 -67.7734 68.5059 -67.627 66.6016 -65.332 C 64.4531 -62.8418 65.2344 -59.668 67.5293 -57.3242 C 73.6816 -51.709 77.4414 -44.0918 77.4414 -35.2539 C 77.4414 -18.7012 64.1113 -5.37109 47.5586 -5.37109 C 30.957 -5.37109 17.6758 -18.7012 17.6758 -35.2539 C 17.6758 -48.7305 26.4648 -60.0586 38.623 -63.8184 L 38.623 -58.5449 C 38.623 -55.127 41.5039 -54.1016 44.4336 -56.25 L 58.6426 -66.5527 C 61.0352 -68.2617 60.9863 -71.0449 58.6426 -72.7539 L 44.4824 -83.1055 C 41.5039 -85.2539 38.623 -84.2773 38.623 -80.7617 L 38.623 -74.9512 C 20.5078 -70.8496 6.83594 -54.541 6.83594 -35.2539 C 6.83594 -12.9395 25.1953 5.46875 47.5586 5.46875 Z M 37.3535 -18.5547 C 39.5508 -18.5547 40.918 -19.9707 40.918 -22.3145 L 40.918 -44.9219 C 40.918 -47.9004 39.209 -49.5117 36.5723 -49.5117 C 35.0586 -49.5117 33.7402 -49.0234 31.9824 -47.5098 L 27.832 -44.1406 C 26.5137 -42.9688 25.9277 -41.9922 25.9277 -40.6738 C 25.9277 -39.0137 27.2461 -37.6465 28.9062 -37.6465 C 29.9805 -37.6465 30.7129 -37.9883 31.543 -38.9648 L 33.7402 -41.2109 L 33.8379 -41.2109 L 33.8379 -22.3145 C 33.8379 -20.0195 35.2051 -18.5547 37.3535 -18.5547 Z M 56.0059 -18.3594 C 62.6465 -18.3594 66.8945 -22.5586 66.8945 -29.248 C 66.8945 -35.1074 62.9883 -38.7695 58.1543 -38.7695 C 55.7617 -38.7695 53.4668 -37.6465 52.4414 -35.8398 L 52.9785 -43.0176 L 62.8418 -43.0176 C 64.6973 -43.0176 65.918 -44.2871 65.918 -46.1426 C 65.918 -47.9492 64.6973 -49.1699 62.8418 -49.1699 L 51.0742 -49.1699 C 48.6328 -49.1699 47.2656 -47.6562 47.0703 -44.9707 L 46.4355 -34.4727 C 46.2891 -32.0801 47.6562 -30.7617 49.8535 -30.7617 C 51.5625 -30.7617 52.0996 -31.1035 53.125 -31.8848 C 54.1992 -32.7148 55.0781 -33.252 56.3477 -33.252 C 58.7891 -33.252 60.2051 -31.4453 60.2051 -29.0039 C 60.2051 -26.4648 58.4961 -24.5117 56.1523 -24.5117 C 54.248 -24.5117 52.9785 -25.5859 51.9531 -27.0508 C 51.3184 -27.8809 50.5859 -28.4668 49.3164 -28.4668 C 47.5586 -28.4668 46.3379 -27.1973 46.3379 -25.4395 C 46.3379 -24.7559 46.4355 -24.1699 46.7285 -23.3887 C 47.8027 -21.0449 51.1719 -18.3594 56.0059 -18.3594 Z"/>
  </g>
  <g id="Semibold-S" transform="matrix(1 0 0 1 1996.2 696)">
   <path d="M 47.0703 4.98047 C 69.0918 4.98047 87.3047 -13.2324 87.3047 -35.2539 C 87.3047 -47.1191 81.5918 -58.8867 72.9004 -65.8203 C 70.4102 -67.9199 67.4316 -67.6758 65.7715 -65.5762 C 64.0137 -63.2812 64.7461 -60.498 66.8457 -58.5449 C 73.5352 -52.8809 77.6855 -44.6777 77.7344 -35.2539 C 77.7344 -18.2617 64.0625 -4.58984 47.0703 -4.58984 C 30.0781 -4.58984 16.4551 -18.2617 16.4551 -35.2539 C 16.4551 -49.3652 25.7812 -61.1328 38.6719 -64.7461 L 38.6719 -59.5703 C 38.6719 -56.25 41.2109 -55.3223 43.9453 -57.3242 L 57.4707 -67.041 C 59.668 -68.6035 59.668 -71.0938 57.4707 -72.7051 L 43.9453 -82.4219 C 41.2109 -84.4238 38.6719 -83.5449 38.6719 -80.1758 L 38.6719 -74.6094 C 20.5566 -70.6543 6.83594 -54.3945 6.83594 -35.2539 C 6.83594 -13.2324 25.0488 4.98047 47.0703 4.98047 Z M 36.5234 -18.8965 C 38.5254 -18.8965 39.7949 -20.166 39.7949 -22.3633 L 39.7949 -45.2148 C 39.7949 -47.9492 38.2812 -49.3652 35.9375 -49.3652 C 34.5215 -49.3652 33.3984 -48.9258 31.6895 -47.6074 L 27.2949 -44.2383 C 26.0742 -43.2129 25.5371 -42.334 25.5371 -41.1133 C 25.5371 -39.5508 26.8066 -38.2324 28.3203 -38.2324 C 29.3457 -38.2324 29.9805 -38.5254 30.8105 -39.4043 L 33.3008 -41.6504 L 33.3008 -22.3633 C 33.3008 -20.2148 34.5703 -18.8965 36.5234 -18.8965 Z M 55.3711 -18.6035 C 61.9141 -18.6035 66.1133 -22.7539 66.1133 -29.248 C 66.1133 -35.1074 62.2559 -38.8672 57.2266 -38.8672 C 54.9316 -38.8672 52.6367 -37.793 51.6113 -36.084 L 52.1484 -43.3105 L 62.4023 -43.3105 C 64.0137 -43.3105 65.1855 -44.5312 65.1855 -46.1914 C 65.1855 -47.9004 64.0137 -49.0234 62.4023 -49.0234 L 50.6348 -49.0234 C 48.2422 -49.0234 46.9238 -47.6074 46.7773 -45.0684 L 46.0449 -34.5703 C 45.8984 -32.2754 47.168 -31.0547 49.2676 -31.0547 C 50.8789 -31.0547 51.416 -31.3965 52.4902 -32.2266 C 53.6621 -33.1543 54.5898 -33.6426 55.9082 -33.6426 C 58.3984 -33.6426 59.9121 -31.7871 59.9121 -29.1016 C 59.9121 -26.3672 58.0566 -24.3164 55.5664 -24.3164 C 53.6133 -24.3164 52.1973 -25.3906 51.123 -26.9531 C 50.5371 -27.9297 49.7559 -28.4668 48.584 -28.4668 C 46.9727 -28.4668 45.8008 -27.2949 45.8008 -25.6348 C 45.8008 -25 45.8984 -24.4141 46.1914 -23.7305 C 47.2656 -21.2891 50.5859 -18.6035 55.3711 -18.6035 Z"/>
  </g>
  <g id="Medium-S" transform="matrix(1 0 0 1 1699.83 696)">
   <path d="M 46.7285 4.63867 C 68.5547 4.63867 86.6211 -13.4277 86.6211 -35.2539 C 86.6211 -47.4609 80.6152 -59.1309 71.582 -66.2109 C 69.3359 -68.0176 66.5527 -67.6758 65.1855 -65.7227 C 63.7207 -63.623 64.3555 -61.1816 66.3086 -59.4727 C 73.3887 -53.7598 77.8809 -45.1172 77.9297 -35.2539 C 77.9785 -17.9199 64.0625 -4.05273 46.7285 -4.05273 C 29.3945 -4.05273 15.5273 -17.9199 15.5273 -35.2539 C 15.5273 -49.8047 25.293 -61.9141 38.6719 -65.4297 L 38.6719 -60.3027 C 38.6719 -57.1289 41.0156 -56.2988 43.5547 -58.1055 L 56.5918 -67.3828 C 58.6426 -68.8477 58.6914 -71.1426 56.5918 -72.6562 L 43.5547 -81.9336 C 41.0156 -83.7891 38.6719 -82.959 38.6719 -79.6875 L 38.6719 -74.3164 C 20.6055 -70.5078 6.83594 -54.2969 6.83594 -35.2539 C 6.83594 -13.4277 24.9023 4.63867 46.7285 4.63867 Z M 35.8398 -19.0918 C 37.7441 -19.0918 38.916 -20.3613 38.916 -22.3633 L 38.916 -45.459 C 38.916 -47.998 37.5977 -49.2676 35.4004 -49.2676 C 34.082 -49.2676 33.1055 -48.877 31.4941 -47.6562 L 26.8555 -44.2871 C 25.7812 -43.457 25.2441 -42.5781 25.2441 -41.4551 C 25.2441 -39.9902 26.4648 -38.6719 27.9297 -38.6719 C 28.8574 -38.6719 29.4434 -38.916 30.2246 -39.6973 L 32.9102 -41.9922 L 32.9102 -22.3633 C 32.9102 -20.4102 34.082 -19.0918 35.8398 -19.0918 Z M 54.8828 -18.7988 C 61.377 -18.7988 65.5762 -22.9004 65.5762 -29.2969 C 65.5762 -35.0586 61.7676 -38.9648 56.543 -38.9648 C 54.3457 -38.9648 52.002 -37.9395 50.9766 -36.2793 L 51.5137 -43.5547 L 62.0605 -43.5547 C 63.5254 -43.5547 64.6484 -44.6777 64.6484 -46.2891 C 64.6484 -47.8516 63.5254 -48.9258 62.0605 -48.9258 L 50.293 -48.9258 C 47.998 -48.9258 46.7285 -47.5586 46.5332 -45.1172 L 45.8008 -34.668 C 45.6055 -32.4219 46.8262 -31.2988 48.7793 -31.2988 C 50.3418 -31.2988 50.9277 -31.5918 52.0508 -32.4707 C 53.2715 -33.4473 54.248 -33.9355 55.5176 -33.9355 C 58.1055 -33.9355 59.7168 -32.0312 59.7168 -29.1992 C 59.7168 -26.2695 57.7637 -24.1211 55.0781 -24.1211 C 53.125 -24.1211 51.6113 -25.2441 50.5371 -26.9043 C 49.9023 -27.9297 49.1211 -28.4668 47.998 -28.4668 C 46.4844 -28.4668 45.4102 -27.3926 45.4102 -25.8301 C 45.4102 -25.1953 45.5078 -24.6094 45.8008 -23.9746 C 46.8262 -21.4355 50.1465 -18.7988 54.8828 -18.7988 Z"/>
  </g>
  <g id="Regular-S" transform="matrix(1 0 0 1 1403.58 696)">
   <path d="M 46.2402 4.15039 C 67.7734 4.15039 85.6934 -13.7207 85.6934 -35.2539 C 85.6934 -47.9492 79.3945 -59.4238 69.8242 -66.6992 C 67.9199 -68.1641 65.4785 -67.7246 64.4043 -65.918 C 63.2812 -64.1113 63.8672 -62.0117 65.625 -60.6934 C 73.291 -54.8828 78.1738 -45.7031 78.2227 -35.2539 C 78.2715 -17.4805 64.0137 -3.27148 46.2402 -3.27148 C 28.5156 -3.27148 14.3555 -17.4805 14.3555 -35.2539 C 14.3555 -50.3906 24.6094 -62.9883 38.6719 -66.3086 L 38.6719 -61.3281 C 38.6719 -58.3008 40.7227 -57.5195 43.0176 -59.1309 L 55.4199 -67.8223 C 57.3242 -69.1406 57.373 -71.1914 55.4199 -72.5586 L 43.0664 -81.25 C 40.7227 -82.959 38.6719 -82.1777 38.6719 -79.1016 L 38.6719 -73.9258 C 20.6543 -70.3125 6.83594 -54.1992 6.83594 -35.2539 C 6.83594 -13.7207 24.7559 4.15039 46.2402 4.15039 Z M 35.0098 -19.4336 C 36.7188 -19.4336 37.7441 -20.5566 37.7441 -22.4121 L 37.7441 -45.8008 C 37.7441 -48.0469 36.6699 -49.1699 34.7656 -49.1699 C 33.5449 -49.1699 32.7148 -48.7793 31.2012 -47.7539 L 26.3184 -44.4336 C 25.3418 -43.7012 24.8535 -42.9199 24.8535 -41.8945 C 24.8535 -40.4785 26.0254 -39.2578 27.3926 -39.2578 C 28.2227 -39.2578 28.7109 -39.4531 29.4922 -40.1367 L 32.373 -42.3828 L 32.373 -22.4121 C 32.373 -20.6055 33.4473 -19.4336 35.0098 -19.4336 Z M 54.248 -19.043 C 60.6445 -19.043 64.8438 -23.0957 64.8438 -29.3457 C 64.8438 -35.0586 61.084 -39.0625 55.6152 -39.0625 C 53.5156 -39.0625 51.2207 -38.0859 50.1465 -36.5234 L 50.7324 -43.8477 L 61.6211 -43.8477 C 62.8418 -43.8477 63.9648 -44.873 63.9648 -46.3379 C 63.9648 -47.8027 62.8418 -48.7793 61.6211 -48.7793 L 49.8535 -48.7793 C 47.6562 -48.7793 46.3867 -47.5098 46.1914 -45.2148 L 45.4102 -34.7656 C 45.2148 -32.6172 46.3867 -31.6406 48.1934 -31.6406 C 49.6094 -31.6406 50.2441 -31.8359 51.4648 -32.8125 C 52.7832 -33.8379 53.7598 -34.3262 55.0781 -34.3262 C 57.7148 -34.3262 59.4238 -32.373 59.4238 -29.2969 C 59.4238 -26.1719 57.3242 -23.9258 54.4922 -23.9258 C 52.4902 -23.9258 50.7812 -25 49.7559 -26.8066 C 49.0723 -27.9297 48.3398 -28.5156 47.2656 -28.5156 C 45.8496 -28.5156 44.873 -27.4902 44.873 -26.0254 C 44.873 -25.4395 45.0195 -24.8535 45.2637 -24.3164 C 46.3379 -21.6797 49.5605 -19.043 54.248 -19.043 Z"/>
  </g>
  <g id="Light-S" transform="matrix(1 0 0 1 1107.6 696)">
   <path d="M 45.5078 3.4668 C 66.6992 3.4668 84.2285 -14.0625 84.2285 -35.2051 C 84.2285 -48.2422 77.5391 -59.8633 67.4805 -66.8945 C 65.9668 -68.0176 64.1602 -67.627 63.3301 -66.2598 C 62.5 -64.8926 62.8906 -63.2812 64.3066 -62.2559 C 72.8516 -56.3965 78.4668 -46.4844 78.5156 -35.2051 C 78.5156 -16.9434 63.8184 -2.24609 45.5078 -2.24609 C 27.2461 -2.24609 12.5977 -16.9434 12.5977 -35.2051 C 12.5977 -51.0254 23.5352 -64.1602 38.3301 -67.4316 L 38.3301 -61.4746 C 38.3301 -59.0332 40.0391 -58.3496 41.9434 -59.7168 L 54.0039 -68.1641 C 55.6152 -69.2871 55.6641 -70.9473 54.0039 -72.1191 L 41.9922 -80.5664 C 40.0391 -81.9824 38.3301 -81.2988 38.3301 -78.8086 L 38.3301 -73.2422 C 20.5078 -69.8242 6.83594 -53.9551 6.83594 -35.2051 C 6.83594 -14.0625 24.3652 3.4668 45.5078 3.4668 Z M 34.0332 -19.6777 C 35.4004 -19.6777 36.2305 -20.6055 36.2305 -22.0703 L 36.2305 -46.7773 C 36.2305 -48.5352 35.3516 -49.4629 33.7891 -49.4629 C 32.8125 -49.4629 32.1289 -49.1699 30.9082 -48.3398 L 25.3418 -44.5801 C 24.5117 -43.9941 24.1699 -43.4082 24.1699 -42.5781 C 24.1699 -41.4551 25.0488 -40.4785 26.1719 -40.4785 C 26.8066 -40.4785 27.1484 -40.625 27.7832 -41.1133 L 31.9336 -44.0918 L 31.9336 -22.0703 C 31.9336 -20.6543 32.7637 -19.6777 34.0332 -19.6777 Z M 53.6621 -19.1895 C 59.9609 -19.1895 64.1602 -23.2422 64.1602 -29.3457 C 64.1602 -34.9609 60.3516 -38.9648 54.8828 -38.9648 C 52.4902 -38.9648 49.9023 -37.8418 48.7793 -35.9863 L 49.4629 -45.0195 L 61.377 -45.0195 C 62.4023 -45.0195 63.2812 -45.8496 63.2812 -47.0215 C 63.2812 -48.1934 62.4023 -48.9258 61.377 -48.9258 L 48.7793 -48.9258 C 46.9238 -48.9258 45.9473 -47.9004 45.8008 -46.0449 L 44.9219 -34.6191 C 44.7754 -32.8613 45.6543 -32.0312 47.168 -32.0312 C 48.3398 -32.0312 48.8281 -32.2754 49.8047 -33.0566 C 51.3672 -34.5703 52.6855 -35.1562 54.3945 -35.1562 C 57.666 -35.1562 59.8633 -32.8125 59.8633 -29.2969 C 59.8633 -25.7324 57.3242 -23.0957 53.9062 -23.0957 C 51.416 -23.0957 49.2676 -24.5117 48.291 -26.6602 C 47.8027 -27.5879 47.168 -28.0762 46.2891 -28.0762 C 45.166 -28.0762 44.3848 -27.2949 44.3848 -26.123 C 44.3848 -25.6348 44.4824 -25.1465 44.6289 -24.707 C 45.6543 -21.8262 49.0723 -19.1895 53.6621 -19.1895 Z"/>
  </g>
  <g id="Thin-S" transform="matrix(1 0 0 1 811.867 696)">
   <path d="M 44.5801 2.53906 C 65.2832 2.53906 82.2754 -14.4531 82.2754 -35.2051 C 82.2754 -48.6328 75.0977 -60.498 64.3555 -67.1387 C 63.4277 -67.8223 62.3535 -67.5293 61.9141 -66.748 C 61.4258 -65.918 61.6699 -64.9414 62.5 -64.3555 C 72.3145 -58.3496 78.8574 -47.5098 78.8574 -35.2051 C 78.8574 -16.2109 63.5254 -0.878906 44.5801 -0.878906 C 25.5859 -0.878906 10.2539 -16.2109 10.2539 -35.2051 C 10.2539 -51.8555 22.1191 -65.7227 37.8906 -68.8477 L 37.8906 -61.7188 C 37.8906 -60.0098 39.0625 -59.4727 40.5273 -60.498 L 52.1484 -68.6035 C 53.3691 -69.4824 53.3691 -70.6543 52.1484 -71.5332 L 40.5762 -79.6387 C 39.0625 -80.7129 37.8906 -80.127 37.8906 -78.418 L 37.8906 -72.3145 C 20.3125 -69.1406 6.83594 -53.6133 6.83594 -35.2051 C 6.83594 -14.4531 23.877 2.53906 44.5801 2.53906 Z M 32.7637 -20.0195 C 33.5938 -20.0195 34.1797 -20.6543 34.1797 -21.6309 L 34.1797 -48.1445 C 34.1797 -49.1699 33.5938 -49.8535 32.5195 -49.8535 C 31.8359 -49.8535 31.3965 -49.6582 30.5176 -49.0723 L 23.9746 -44.7754 C 23.4375 -44.4336 23.1934 -44.043 23.1934 -43.457 C 23.1934 -42.7246 23.7793 -42.0898 24.5605 -42.0898 C 24.9512 -42.0898 25.1465 -42.1875 25.4883 -42.4805 L 31.2012 -46.2402 L 31.3477 -46.2402 L 31.3477 -21.6309 C 31.3477 -20.6543 31.8848 -20.0195 32.7637 -20.0195 Z M 52.9297 -19.3848 C 59.1309 -19.3848 63.3301 -23.3887 63.3301 -29.3457 C 63.3301 -34.8633 59.4727 -38.8672 53.9062 -38.8672 C 51.1719 -38.8672 48.3887 -37.5488 47.0215 -35.498 L 46.9238 -35.498 L 47.8516 -46.5332 L 61.0352 -46.5332 C 61.8164 -46.5332 62.4023 -47.1191 62.4023 -47.9004 C 62.4023 -48.6816 61.8164 -49.1699 61.0352 -49.1699 L 47.3145 -49.1699 C 46.0449 -49.1699 45.3125 -48.4863 45.2148 -47.168 L 44.2871 -34.375 C 44.1895 -33.2031 44.7754 -32.6172 45.8496 -32.6172 C 46.582 -32.6172 46.9238 -32.8125 47.6074 -33.3496 C 49.5605 -35.4492 51.2695 -36.2793 53.5645 -36.2793 C 57.6172 -36.2793 60.4004 -33.4473 60.4004 -29.2969 C 60.4004 -25.0977 57.2754 -22.0215 53.0762 -22.0215 C 49.9512 -22.0215 47.2168 -23.877 46.3867 -26.4648 C 46.0938 -27.1973 45.6543 -27.5391 44.9707 -27.5391 C 44.1895 -27.5391 43.7012 -27.002 43.7012 -26.2207 C 43.7012 -25.8789 43.75 -25.5859 43.8477 -25.293 C 44.7754 -21.9727 48.4375 -19.3848 52.9297 -19.3848 Z"/>
  </g>
  <g id="Ultralight-S" transform="matrix(1 0 0 1 515.644 696)">
   <path d="M 44.043 2.05078 C 64.502 2.05078 81.2988 -14.6973 81.2988 -35.1562 C 81.2988 -48.8281 73.8281 -60.8398 62.7441 -67.2852 C 62.1094 -67.7246 61.4258 -67.4805 61.1328 -66.9922 C 60.8887 -66.4551 61.0352 -65.7715 61.5723 -65.4297 C 72.0215 -59.3262 79.0527 -48.0469 79.0527 -35.1562 C 79.0527 -15.8691 63.3789 -0.146484 44.043 -0.146484 C 24.7559 -0.146484 9.08203 -15.8691 9.08203 -35.1562 C 9.08203 -52.2949 21.3867 -66.5527 37.6465 -69.5801 L 37.6465 -61.8164 C 37.6465 -60.5469 38.5742 -60.0098 39.7949 -60.8887 L 51.1719 -68.8477 C 52.1973 -69.5801 52.1973 -70.5078 51.1719 -71.1914 L 39.7949 -79.1504 C 38.5742 -80.0293 37.6465 -79.541 37.6465 -78.2227 L 37.6465 -71.8262 C 20.2148 -68.75 6.83594 -53.4668 6.83594 -35.1562 C 6.83594 -14.6973 23.584 2.05078 44.043 2.05078 Z M 32.0801 -20.2148 C 32.666 -20.2148 33.1543 -20.7031 33.1543 -21.3867 L 33.1543 -48.8281 C 33.1543 -49.5117 32.666 -50.0488 31.8848 -50.0488 C 31.2988 -50.0488 31.0059 -49.9023 30.3223 -49.4629 L 23.291 -44.873 C 22.9004 -44.6289 22.7051 -44.3359 22.7051 -43.9453 C 22.7051 -43.3594 23.1445 -42.9199 23.7305 -42.9199 C 23.9746 -42.9199 24.1211 -42.9688 24.3164 -43.1641 L 30.8105 -47.3633 L 31.0059 -47.3633 L 31.0059 -21.3867 C 31.0059 -20.7031 31.4453 -20.2148 32.0801 -20.2148 Z M 52.5391 -19.4824 C 58.6914 -19.4824 62.8906 -23.4863 62.8906 -29.3457 C 62.8906 -34.7656 58.9844 -38.8184 53.3691 -38.8184 C 50.5371 -38.8184 47.7051 -37.4512 46.1914 -35.3516 L 45.9961 -35.3516 L 47.0215 -47.3145 L 60.8887 -47.3145 C 61.4746 -47.3145 61.9141 -47.7539 61.9141 -48.3398 C 61.9141 -48.9258 61.4746 -49.2676 60.8887 -49.2676 L 46.582 -49.2676 C 45.5566 -49.2676 44.9707 -48.7793 44.9219 -47.7539 L 43.9453 -34.2773 C 43.8477 -33.3984 44.2871 -32.9102 45.1172 -32.9102 C 45.7031 -32.9102 45.9961 -33.1055 46.4355 -33.4961 C 48.584 -35.9375 50.5371 -36.8164 53.125 -36.8164 C 57.5684 -36.8164 60.6934 -33.7891 60.6934 -29.2969 C 60.6934 -24.7559 57.2754 -21.4844 52.6855 -21.4844 C 49.2188 -21.4844 46.1426 -23.584 45.4102 -26.3672 C 45.2148 -26.9531 44.873 -27.2461 44.2871 -27.2461 C 43.7012 -27.2461 43.3594 -26.8555 43.3594 -26.2695 C 43.3594 -25.9766 43.3594 -25.7812 43.4082 -25.5859 C 44.2871 -22.0703 48.1445 -19.4824 52.5391 -19.4824 Z"/>
  </g>
 </g>
</svg>
